<?xml version="1.0" encoding="UTF-8" standalone="no"?>
<!-- Created with Inkscape (http://www.inkscape.org/) -->

<svg
   xmlns:dc="http://purl.org/dc/elements/1.1/"
   xmlns:cc="http://creativecommons.org/ns#"
   xmlns:rdf="http://www.w3.org/1999/02/22-rdf-syntax-ns#"
   xmlns:svg="http://www.w3.org/2000/svg"
   xmlns="http://www.w3.org/2000/svg"
   xmlns:sodipodi="http://sodipodi.sourceforge.net/DTD/sodipodi-0.dtd"
   xmlns:inkscape="http://www.inkscape.org/namespaces/inkscape"
   id="svg2985"
   version="1.1"
   inkscape:version="0.48.4 r9939"
   width="471"
   height="604"
   sodipodi:docname="cookies.svg"
   inkscape:export-filename="C:\git\chrisdavies\css\img\cookies.png"
   inkscape:export-xdpi="66.935204"
   inkscape:export-ydpi="66.935204">
  <metadata
     id="metadata2991">
    <rdf:RDF>
      <cc:Work
         rdf:about="">
        <dc:format>image/svg+xml</dc:format>
        <dc:type
           rdf:resource="http://purl.org/dc/dcmitype/StillImage" />
        <dc:title></dc:title>
      </cc:Work>
    </rdf:RDF>
  </metadata>
  <defs
     id="defs2989" />
  <sodipodi:namedview
     pagecolor="#ffffff"
     bordercolor="#666666"
     borderopacity="1"
     objecttolerance="10"
     gridtolerance="10"
     guidetolerance="10"
     inkscape:pageopacity="0"
     inkscape:pageshadow="2"
     inkscape:window-width="944"
     inkscape:window-height="1001"
     id="namedview2987"
     showgrid="false"
     inkscape:zoom="0.78145695"
     inkscape:cx="210.66408"
     inkscape:cy="186.50228"
     inkscape:window-x="960"
     inkscape:window-y="0"
     inkscape:window-maximized="0"
     inkscape:current-layer="svg2985" />
  <g
     inkscape:groupmode="layer"
     id="layer1"
     inkscape:label="Vectors">
    <path
       style="fill:none;stroke:#000000;stroke-width:5;stroke-linecap:round;stroke-linejoin:miter;stroke-opacity:1;stroke-miterlimit:4;stroke-dasharray:none"
       d="m 83.817797,185.55085 c 0,0 -25.983613,-22.62635 -37.110169,9.59746 -7.287573,32.22381 31.351694,31.99152 31.351694,31.99152"
       inkscape:connector-curvature="0"
       sodipodi:nodetypes="ccc"
       id="path4085" />
    <path
       style="fill:none;stroke:#000000;stroke-width:5.20000000000000020;stroke-linecap:round;stroke-linejoin:miter;stroke-opacity:1;stroke-miterlimit:4;stroke-dasharray:none"
       d="m 63.34322,202.82627 c 0,0 -6.130403,-2.53118 0.459087,-7.19338 8.172992,-5.11464 15.536676,0.15525 15.536676,0.15525"
       id="path3778"
       inkscape:connector-curvature="0"
       sodipodi:nodetypes="ccc" />
    <path
       sodipodi:nodetypes="cc"
       inkscape:connector-curvature="0"
       id="path3793"
       d="m 414.88016,206.89813 c 4.77951,-1.76858 10.73234,-0.98227 15.99576,3.36772"
       style="fill:none;stroke:#000000;stroke-width:5.19999981;stroke-linecap:round;stroke-linejoin:miter;stroke-miterlimit:4;stroke-opacity:1;stroke-dasharray:none" />
  </g>
  <path
     style="fill:none;stroke:#000000;stroke-width:5;stroke-linecap:round;stroke-linejoin:miter;stroke-miterlimit:4;stroke-opacity:1;stroke-dasharray:none"
     d="m 423.02064,184.14636 c 0,0 5.89011,-6.35836 12.668,-1.35729 11.30218,7.26321 9.57465,26.74632 7.23885,37.09914 -2.3358,10.35282 -9.3896,17.23487 -15.38257,20.81171 -5.99297,3.57684 -15.83499,2.26214 -15.83499,2.26214"
     id="path3780"
     inkscape:connector-curvature="0"
     sodipodi:nodetypes="ccccc" />
  <path
     style="fill:none;stroke:#000000;stroke-width:5;stroke-linecap:round;stroke-linejoin:miter;stroke-miterlimit:4;stroke-opacity:1;stroke-dasharray:none"
     d="M 85.737288,207.94491 C 88.054891,152.73939 106.13312,48.868719 239.29661,40.309321 c 46.14653,-6.000077 167.5619,26.574323 178.51271,101.093219 6.472,30.3706 -6.79665,111.20349 -33.27118,142.04237 C 342.06785,332.19905 272.85129,341.31723 226.5,339.75 171.19108,339.46243 145.03526,324.42176 115.80932,298.80085 98.740164,275.73926 86.618837,243.31569 85.737288,207.94491 z"
     id="path3795"
     inkscape:connector-curvature="0"
     sodipodi:nodetypes="ccccccc" />
  <path
     style="fill:none;stroke:#000000;stroke-width:5;stroke-linecap:round;stroke-linejoin:miter;stroke-miterlimit:4;stroke-opacity:1;stroke-dasharray:none"
     d="m 122.84746,103.65254 c 0,0 22.16033,-29.037349 24.95339,-10.237286 3.11297,58.789476 35.09501,77.039546 42.54873,73.900416 73.03634,-15.2959 119.17175,-77.198646 170.51482,-74.220331 15.83248,1.378736 43.95594,24.936141 49.90679,48.307201 5.31101,29.76937 -16.6356,78.05932 -16.6356,78.05932 l 11.51695,9.59746"
     id="path3797"
     inkscape:connector-curvature="0"
     sodipodi:nodetypes="ccccccc" />
  <path
     style="fill:none;stroke:#000000;stroke-width:5;stroke-linecap:butt;stroke-linejoin:miter;stroke-miterlimit:4;stroke-opacity:1;stroke-dasharray:none"
     d="m 100.77331,183.31144 c -0.15217,-2.29132 25.27667,-3.53255 33.27118,-5.75847 9.91401,-2.86576 13.35761,-8.96106 15.03601,-5.43856 1.03857,3.5225 -2.65825,12.55249 -3.83897,11.83687 -24.11034,-0.90829 -44.31605,1.65148 -44.46822,-0.63984 z"
     id="path3799"
     inkscape:connector-curvature="0"
     sodipodi:nodetypes="zcccz" />
  <path
     sodipodi:nodetypes="zcccz"
     inkscape:connector-curvature="0"
     id="path3801"
     d="m 296.23528,197.76994 c 0.57532,-2.91189 -20.7025,-7.77785 -27.03424,-11.65622 -7.83147,-4.94443 -9.55784,-13.18662 -11.66469,-8.89631 -1.56538,4.37279 -0.19663,16.40226 0.94204,15.6389 20.58091,1.94592 37.18158,7.82552 37.75689,4.91363 z"
     style="fill:none;stroke:#000000;stroke-width:5.26269245;stroke-linecap:butt;stroke-linejoin:miter;stroke-miterlimit:4;stroke-opacity:1;stroke-dasharray:none" />
  <path
     sodipodi:type="arc"
     style="fill:none;stroke:#000000;stroke-width:5;stroke-linecap:round;stroke-miterlimit:4;stroke-opacity:1;stroke-dasharray:none"
     id="path3805"
     sodipodi:cx="137.08368"
     sodipodi:cy="229.85912"
     sodipodi:rx="24.793432"
     sodipodi:ry="24.473516"
     d="m 161.87711,229.85912 a 24.793432,24.473516 0 1 1 -49.58686,0 24.793432,24.473516 0 1 1 49.58686,0 z"
     transform="matrix(0.91209004,0,0,0.91209004,-2.5051235,3.1195628)" />
  <path
     transform="matrix(0.8534834,0,0,0.8534834,158.7683,29.086277)"
     d="m 161.87711,229.85912 a 24.793432,24.473516 0 1 1 -49.58686,0 24.793432,24.473516 0 1 1 49.58686,0 z"
     sodipodi:ry="24.473516"
     sodipodi:rx="24.793432"
     sodipodi:cy="229.85912"
     sodipodi:cx="137.08368"
     id="path3807"
     style="fill:none;stroke:#000000;stroke-width:5;stroke-linecap:round;stroke-miterlimit:4;stroke-opacity:1;stroke-dasharray:none"
     sodipodi:type="arc" />
  <path
     sodipodi:type="arc"
     style="fill:#000000;fill-opacity:1;stroke:#000000;stroke-width:5;stroke-linecap:round;stroke-miterlimit:4;stroke-opacity:1;stroke-dasharray:none"
     id="path3809"
     sodipodi:cx="112.13029"
     sodipodi:cy="215.94279"
     sodipodi:rx="5.9184322"
     sodipodi:ry="6.7182202"
     d="m 118.04872,215.94279 a 5.9184322,6.7182202 0 1 1 -11.83687,0 5.9184322,6.7182202 0 1 1 11.83687,0 z"
     transform="matrix(0.94442355,0,0,1.3558017,2.39282,-80.831756)" />
  <path
     transform="matrix(0.83052954,0,0,1.192297,169.68286,-31.287864)"
     d="m 118.04872,215.94279 a 5.9184322,6.7182202 0 1 1 -11.83687,0 5.9184322,6.7182202 0 1 1 11.83687,0 z"
     sodipodi:ry="6.7182202"
     sodipodi:rx="5.9184322"
     sodipodi:cy="215.94279"
     sodipodi:cx="112.13029"
     id="path3811"
     style="fill:#000000;fill-opacity:1;stroke:#000000;stroke-width:5;stroke-linecap:round;stroke-miterlimit:4;stroke-opacity:1;stroke-dasharray:none"
     sodipodi:type="arc" />
  <path
     style="fill:none;stroke:#000000;stroke-width:5;stroke-linecap:round;stroke-linejoin:miter;stroke-miterlimit:4;stroke-opacity:1;stroke-dasharray:none"
     d="m 176.76703,246.82379 c 0,0 -5.03897,3.54607 -4.8442,10.16356 0.16087,5.35478 8.68018,9.32025 14.02528,9.501 5.10799,0.29931 8.84369,-2.57248 10.93591,-6.01408 2.09222,-3.44161 0.95974,-8.16646 0.95974,-8.16646"
     id="path3813"
     inkscape:connector-curvature="0"
     sodipodi:nodetypes="ccccc" />
  <path
     style="fill:none;stroke:#000000;stroke-width:5;stroke-linecap:round;stroke-linejoin:miter;stroke-miterlimit:4;stroke-opacity:1;stroke-dasharray:none"
     d="m 111.74984,289.10977 c 0,0 21.39478,17.16607 54.74385,19.90686 33.34907,2.74078 118.53626,-6.78643 118.53626,-6.78643"
     id="path3815"
     inkscape:connector-curvature="0"
     sodipodi:nodetypes="czc" />
  <path
     style="fill:none;stroke:#000000;stroke-width:5;stroke-linecap:round;stroke-linejoin:miter;stroke-miterlimit:4;stroke-opacity:1;stroke-dasharray:none"
     d="m 226.66667,303.13505 c 0,0 -3.84324,-15.26532 0.90486,-19.90685 4.7481,-4.64153 14.38519,-4.50736 19.90686,-0.45243 5.52167,4.05493 5.88157,20.35928 5.88157,20.35928"
     id="path3817"
     inkscape:connector-curvature="0"
     sodipodi:nodetypes="czzc" />
  <path
     style="fill:none;stroke:#000000;stroke-width:5;stroke-linecap:round;stroke-linejoin:miter;stroke-opacity:1;stroke-miterlimit:4;stroke-dasharray:none"
     d="m 238.42982,299.0632 -2.71458,-18.54957"
     id="path3819"
     inkscape:connector-curvature="0" />
  <path
     style="fill:none;stroke:#000000;stroke-width:5;stroke-linecap:butt;stroke-linejoin:miter;stroke-miterlimit:4;stroke-opacity:1;stroke-dasharray:none"
     d="m 227.13983,341.66949 c 0,0 -2.20347,42.80124 5.75848,61.42373 7.96195,18.6225 37.19443,28.32373 51.18644,30.71186 13.99201,2.38813 24.55796,-10.9598 24.95339,2.55933 0.39543,13.51912 0.68,23.23453 -5.75848,28.15254 -37.58523,-5.2706 -71.92821,-20.45861 -81.89831,-48.62712 -9.97009,-28.1685 5.75848,-74.22034 5.75848,-74.22034 z"
     id="path3821"
     inkscape:connector-curvature="0"
     sodipodi:nodetypes="ccczczc" />
  <path
     style="fill:none;stroke:#000000;stroke-width:5;stroke-linecap:butt;stroke-linejoin:miter;stroke-opacity:1;stroke-miterlimit:4;stroke-dasharray:none"
     d="m 287.2839,433.80508 -2.55932,26.23306"
     id="path3823"
     inkscape:connector-curvature="0" />
  <path
     style="fill:none;stroke:#000000;stroke-width:4;stroke-linecap:round;stroke-linejoin:miter;stroke-opacity:1;stroke-miterlimit:4;stroke-dasharray:none"
     d="m 243.13559,398.61441 4.47882,-31.99153 25.59322,-1.91949"
     id="path3825"
     inkscape:connector-curvature="0" />
  <path
     style="fill:none;stroke:#000000;stroke-width:4;stroke-linecap:round;stroke-linejoin:miter;stroke-opacity:1;stroke-miterlimit:4;stroke-dasharray:none"
     d="m 277.68644,365.34322 -10.23729,62.70339"
     id="path3829"
     inkscape:connector-curvature="0" />
  <path
     style="fill:none;stroke:#000000;stroke-width:3;stroke-linecap:round;stroke-linejoin:miter;stroke-miterlimit:4;stroke-opacity:1;stroke-dasharray:none"
     d="m 251.77646,372.80904 13.34664,0.90486"
     id="path3831"
     inkscape:connector-curvature="0"
     sodipodi:nodetypes="cc" />
  <path
     sodipodi:nodetypes="cc"
     inkscape:connector-curvature="0"
     id="path3833"
     d="m 251.13563,377.59735 15.30695,0.82924"
     style="fill:none;stroke:#000000;stroke-width:3.07561111;stroke-linecap:round;stroke-linejoin:miter;stroke-miterlimit:4;stroke-opacity:1;stroke-dasharray:none" />
  <path
     style="fill:none;stroke:#000000;stroke-width:3.07561111;stroke-linecap:round;stroke-linejoin:miter;stroke-miterlimit:4;stroke-opacity:1;stroke-dasharray:none"
     d="m 250.93067,385.72936 c 4.70509,-0.8529 9.38436,-1.73161 15.26445,-1.4095"
     id="path3835"
     inkscape:connector-curvature="0"
     sodipodi:nodetypes="cc" />
  <path
     sodipodi:nodetypes="cc"
     inkscape:connector-curvature="0"
     id="path3837"
     d="m 250.4427,392.72706 c 4.76296,-0.42369 9.50254,-0.87543 15.32937,-0.0226"
     style="fill:none;stroke:#000000;stroke-width:3.07561111;stroke-linecap:round;stroke-linejoin:miter;stroke-miterlimit:4;stroke-opacity:1;stroke-dasharray:none" />
  <path
     style="fill:none;stroke:#000000;stroke-width:3.07561111;stroke-linecap:round;stroke-linejoin:miter;stroke-miterlimit:4;stroke-opacity:1;stroke-dasharray:none"
     d="m 247.50191,402.9067 c 4.76296,-0.42369 9.50254,-0.87543 15.32937,-0.0226"
     id="path3839"
     inkscape:connector-curvature="0"
     sodipodi:nodetypes="cc" />
  <path
     sodipodi:nodetypes="cc"
     inkscape:connector-curvature="0"
     id="path3841"
     d="m 247.72812,411.72906 c 4.76296,1.32212 9.50254,1.576 15.32937,-0.0226"
     style="fill:none;stroke:#000000;stroke-width:3.07561111;stroke-linecap:round;stroke-linejoin:miter;stroke-miterlimit:4;stroke-opacity:1;stroke-dasharray:none" />
  <path
     style="fill:none;stroke:#000000;stroke-width:3.07561111;stroke-linecap:round;stroke-linejoin:miter;stroke-miterlimit:4;stroke-opacity:1;stroke-dasharray:none"
     d="m 247.72812,411.72906 c 4.76296,1.32212 9.50254,1.576 15.32937,-0.0226"
     id="path3843"
     inkscape:connector-curvature="0"
     sodipodi:nodetypes="cc" />
  <path
     style="fill:none;stroke:#000000;stroke-width:4;stroke-linecap:round;stroke-linejoin:miter;stroke-miterlimit:4;stroke-opacity:1;stroke-dasharray:none"
     d="m 231.41717,437.05389 c 0,0 -4.83807,7.5654 -4.7505,15.38256 0.0876,7.81716 6.37837,-1.17888 14.93014,2.94079 8.55177,4.11966 14.93015,3.167 14.93015,3.167"
     id="path3845"
     inkscape:connector-curvature="0"
     sodipodi:nodetypes="czzc" />
  <path
     sodipodi:nodetypes="cc"
     inkscape:connector-curvature="0"
     id="path3847"
     d="m 234.58418,448.3646 13.34664,0.90486"
     style="fill:none;stroke:#000000;stroke-width:3;stroke-linecap:round;stroke-linejoin:miter;stroke-miterlimit:4;stroke-opacity:1;stroke-dasharray:none" />
  <path
     style="fill:none;stroke:#000000;stroke-width:5;stroke-linecap:butt;stroke-linejoin:miter;stroke-miterlimit:4;stroke-opacity:1;stroke-dasharray:none"
     d="m 220.33267,412.17032 -18.54956,52.93413 65.60213,9.95343 4.07186,-17.19228"
     id="path3849"
     inkscape:connector-curvature="0"
     sodipodi:nodetypes="cccc" />
  <path
     style="fill:none;stroke:#000000;stroke-width:5;stroke-linecap:round;stroke-linejoin:miter;stroke-opacity:1;stroke-miterlimit:4;stroke-dasharray:none"
     d="m 312.17566,330.28076 -11.76314,46.14771"
     id="path3851"
     inkscape:connector-curvature="0" />
  <path
     style="fill:none;stroke:#000000;stroke-width:5;stroke-linecap:round;stroke-linejoin:miter;stroke-miterlimit:4;stroke-opacity:1;stroke-dasharray:none"
     d="m 310.36595,345.66333 c 0,0 25.37138,-18.30467 37.09913,-14.02528 11.72775,4.27939 15.30891,20.45999 11.31071,40.26614 -3.99821,19.80615 -18.54956,33.47971 -18.54956,33.47971 l -18.54957,-5.42915 c 0,0 19.42493,-23.85245 21.71657,-35.28942 2.29164,-11.43698 -2.71458,-28.95543 -2.71458,-28.95543"
     id="path3853"
     inkscape:connector-curvature="0"
     sodipodi:nodetypes="czzcczc" />
  <path
     sodipodi:type="arc"
     style="fill:none;stroke:#000000;stroke-width:5;stroke-linecap:round;stroke-miterlimit:4;stroke-opacity:1;stroke-dasharray:none"
     id="path3855"
     sodipodi:cx="330.04657"
     sodipodi:cy="397.4664"
     sodipodi:rx="34.610779"
     sodipodi:ry="12.441784"
     d="m 364.65735,397.4664 a 34.610779,12.441784 0 1 1 -69.22156,0 34.610779,12.441784 0 1 1 69.22156,0 z"
     transform="matrix(1.0464667,0.18084507,-0.19347097,0.97817439,59.299899,-55.989062)" />
  <path
     style="fill:none;stroke:#000000;stroke-width:5;stroke-linecap:round;stroke-linejoin:miter;stroke-miterlimit:4;stroke-opacity:1;stroke-dasharray:none"
     d="m 305.84166,366.02261 c 10.60739,-11.16656 23.51632,-19.70279 42.52828,-21.26414"
     id="path3857"
     inkscape:connector-curvature="0"
     sodipodi:nodetypes="cc" />
  <path
     style="fill:none;stroke:#000000;stroke-width:4;stroke-linecap:round;stroke-linejoin:miter;stroke-miterlimit:4;stroke-opacity:1;stroke-dasharray:none"
     d="m 281.86295,419.8616 c 1.40369,-15.25351 12.19878,-24.86887 12.21557,-24.88356"
     id="path3859"
     inkscape:connector-curvature="0"
     sodipodi:nodetypes="cc" />
  <path
     style="fill:none;stroke:#000000;stroke-width:4;stroke-linecap:round;stroke-linejoin:miter;stroke-miterlimit:4;stroke-opacity:1;stroke-dasharray:none"
     d="m 362.39522,406.74118 c 0,0 6.71075,34.00514 -0.90485,58.8157 -7.6156,24.81056 -14.29881,47.30778 -35.28942,52.02928 -20.99062,4.7215 -38.72088,-1.40809 -49.76714,-11.76315 -11.04625,-10.35505 -6.334,-33.93213 -6.334,-33.93213"
     id="path3861"
     inkscape:connector-curvature="0"
     sodipodi:nodetypes="czzzc" />
  <text
     xml:space="preserve"
     style="font-size:27.11409569px;font-style:normal;font-variant:normal;font-weight:bold;font-stretch:normal;line-height:125%;letter-spacing:0px;word-spacing:0px;fill:#000000;fill-opacity:1;stroke:none;font-family:Segoe Print;-inkscape-font-specification:Segoe Print Bold"
     x="346.52258"
     y="434.48557"
     id="text3863"
     sodipodi:linespacing="125%"
     transform="matrix(0.9679667,0.14346234,-0.13711561,1.0127715,0,0)"><tspan
       sodipodi:role="line"
       id="tspan3865"
       x="346.52258"
       y="434.48557">Cooki</tspan></text>
  <path
     style="fill:#000000;stroke:#000000;stroke-width:1px;stroke-linecap:butt;stroke-linejoin:miter;stroke-opacity:1"
     d="m 180.51897,531.61144 23.07385,7.69129 c 8.00115,-14.66265 11.58992,-36.31607 14.93014,-58.36328 l 30.31271,7.23886 c 1.27723,16.55366 1.13395,33.81759 0,51.57684 l 27.14571,-6.33399 0.90486,-24.88357 -9.04857,-14.47771 1.35728,-18.54957 -69.67398,-9.04857 c -3.94812,20.1466 -7.84065,41.39648 -19.002,65.1497 z"
     id="path3869"
     inkscape:connector-curvature="0"
     sodipodi:nodetypes="ccccccccccc" />
  <path
     sodipodi:type="arc"
     style="fill:none;stroke:#000000;stroke-width:3;stroke-linecap:round;stroke-miterlimit:4;stroke-opacity:1;stroke-dasharray:none"
     id="path3871"
     sodipodi:cx="111.0712"
     sodipodi:cy="523.24152"
     sodipodi:rx="9.7272129"
     sodipodi:ry="9.2747841"
     d="m 120.79841,523.24152 a 9.7272129,9.2747841 0 1 1 -19.45443,0 9.7272129,9.2747841 0 1 1 19.45443,0 z"
     transform="matrix(0.91602087,0,0,0.91602087,62.67623,65.205506)" />
  <path
     transform="matrix(0.81527715,0,0,0.81527715,90.379596,120.45274)"
     d="m 120.79841,523.24152 a 9.7272129,9.2747841 0 1 1 -19.45443,0 9.7272129,9.2747841 0 1 1 19.45443,0 z"
     sodipodi:ry="9.2747841"
     sodipodi:rx="9.7272129"
     sodipodi:cy="523.24152"
     sodipodi:cx="111.0712"
     id="path3873"
     style="fill:none;stroke:#000000;stroke-width:3.67973026;stroke-linecap:round;stroke-miterlimit:4;stroke-opacity:1;stroke-dasharray:none"
     sodipodi:type="arc" />
  <path
     sodipodi:type="arc"
     style="fill:none;stroke:#000000;stroke-width:3.67973026;stroke-linecap:round;stroke-miterlimit:4;stroke-opacity:1;stroke-dasharray:none"
     id="path3875"
     sodipodi:cx="111.0712"
     sodipodi:cy="523.24152"
     sodipodi:rx="9.7272129"
     sodipodi:ry="9.2747841"
     d="m 120.79841,523.24152 a 9.7272129,9.2747841 0 1 1 -19.45443,0 9.7272129,9.2747841 0 1 1 19.45443,0 z"
     transform="matrix(0.81527715,0,0,0.81527715,106.21459,120.90517)" />
  <path
     transform="matrix(0.81527715,0,0,0.81527715,167.29244,121.81003)"
     d="m 120.79841,523.24152 a 9.7272129,9.2747841 0 1 1 -19.45443,0 9.7272129,9.2747841 0 1 1 19.45443,0 z"
     sodipodi:ry="9.2747841"
     sodipodi:rx="9.7272129"
     sodipodi:cy="523.24152"
     sodipodi:cx="111.0712"
     id="path3877"
     style="fill:none;stroke:#000000;stroke-width:3.67973026;stroke-linecap:round;stroke-miterlimit:4;stroke-opacity:1;stroke-dasharray:none"
     sodipodi:type="arc" />
  <path
     sodipodi:type="arc"
     style="fill:none;stroke:#000000;stroke-width:3.67973026;stroke-linecap:round;stroke-miterlimit:4;stroke-opacity:1;stroke-dasharray:none"
     id="path3879"
     sodipodi:cx="111.0712"
     sodipodi:cy="523.24152"
     sodipodi:rx="9.7272129"
     sodipodi:ry="9.2747841"
     d="m 120.79841,523.24152 a 9.7272129,9.2747841 0 1 1 -19.45443,0 9.7272129,9.2747841 0 1 1 19.45443,0 z"
     transform="matrix(0.81527715,0,0,0.81527715,188.10415,119.54789)" />
  <path
     transform="matrix(0.67423594,0,0,0.67423594,219.83098,189.56468)"
     d="m 120.79841,523.24152 a 9.7272129,9.2747841 0 1 1 -19.45443,0 9.7272129,9.2747841 0 1 1 19.45443,0 z"
     sodipodi:ry="9.2747841"
     sodipodi:rx="9.7272129"
     sodipodi:cy="523.24152"
     sodipodi:cx="111.0712"
     id="path3881"
     style="fill:none;stroke:#000000;stroke-width:4.44948099;stroke-linecap:round;stroke-miterlimit:4;stroke-opacity:1;stroke-dasharray:none"
     sodipodi:type="arc" />
</svg>
