<?xml version="1.0" encoding="UTF-8" standalone="no"?>
<svg width="1928px" height="1355px" viewBox="0 0 1928 1355" version="1.1" xmlns="http://www.w3.org/2000/svg" xmlns:xlink="http://www.w3.org/1999/xlink" xmlns:sketch="http://www.bohemiancoding.com/sketch/ns">
    <!-- Generator: Sketch 3.3.3 (12081) - http://www.bohemiancoding.com/sketch -->
    <title>beams + octo-boat</title>
    <desc>Created with Sketch.</desc>
    <defs>
        <linearGradient x1="50%" y1="0%" x2="50%" y2="100%" id="linearGradient-1">
            <stop stop-color="#FFFFFF" stop-opacity="0" offset="0%"></stop>
            <stop stop-color="#FFFFFF" offset="100%"></stop>
        </linearGradient>
        <path id="path-2" d="M0.432613888,3.68545235 C0.432613888,3.68545235 3.42468409,15.6000123 3.40600421,22.233211 C3.38732433,28.8664096 0.432613888,35.3922085 0.432613888,35.3922085 L22.0664904,34.6355118 C22.0664904,34.6355118 25.0581975,28.42714 24.1418375,20.2553825 C23.2254774,12.0836251 17.7678558,0.674727905 17.7678558,0.674727905"></path>
        <path id="path-4" d="M0.432613888,3.68545235 C0.432613888,3.68545235 3.42468409,15.6000123 3.40600421,22.233211 C3.38732433,28.8664096 0.432613888,35.3922085 0.432613888,35.3922085 L22.0664904,34.6355118 C22.0664904,34.6355118 25.0581975,28.42714 24.1418375,20.2553825 C23.2254774,12.0836251 17.7678558,0.674727905 17.7678558,0.674727905"></path>
        <path id="path-6" d="M0.34750735,3.63176903 C0.34750735,3.63176903 3.33957755,15.546329 3.32089767,22.1795277 C3.30221779,28.8127263 0.34750735,35.3385251 0.34750735,35.3385251 L21.9813838,34.5818285 C21.9813838,34.5818285 24.9730909,28.3734567 24.0567309,20.2016992 C23.1403709,12.0299417 17.6827493,0.621044591 17.6827493,0.621044591"></path>
    </defs>
    <g id="Page-1" stroke="none" stroke-width="1" fill="none" fill-rule="evenodd" sketch:type="MSPage">
        <g id="beams-+-octo-boat" sketch:type="MSLayerGroup" transform="translate(-1.000000, 0.000000)">
            <g id="beams" transform="translate(0.000000, 58.000000)" fill="url(#linearGradient-1)" sketch:type="MSShapeGroup">
                <path d="M847.820312,0 L1054.17969,0 L994.398438,1052.17969 L899.398438,1052.17969 L847.820312,0 Z" id="beam-7"></path>
                <path d="M622.625646,46.0361172 L828.985021,46.0361172 L769.203771,1097.47387 L674.203771,1097.47387 L622.625646,46.0361172 Z" id="beam-6" transform="translate(725.805333, 571.754995) rotate(-22.000000) translate(-725.805333, -571.754995) "></path>
                <path d="M428.097084,281.862658 L634.456459,281.862658 L574.675209,1211.86266 L479.675209,1211.86266 L428.097084,281.862658 Z" id="beam-5" transform="translate(531.276771, 746.862658) rotate(-46.000000) translate(-531.276771, -746.862658) "></path>
                <path d="M349.318516,549.977598 L555.677891,549.977598 L495.896641,1360.36336 L400.896641,1360.36336 L349.318516,549.977598 Z" id="beam-4" transform="translate(452.498204, 955.170478) rotate(-66.000000) translate(-452.498204, -955.170478) "></path>
                <path d="M305.7437,748.594724 L512.103075,748.594724 L452.321825,1558.98048 L357.321825,1558.98048 L305.7437,748.594724 Z" id="beam-4-copy" transform="translate(408.923388, 1153.787604) rotate(-88.000000) translate(-408.923388, -1153.787604) "></path>
                <path d="M1048.98613,27.9522684 L1255.3455,27.9522684 L1195.56425,1080.13196 L1100.56425,1080.13196 L1048.98613,27.9522684 Z" id="beam-3" transform="translate(1152.165817, 554.042115) rotate(20.000000) translate(-1152.165817, -554.042115) "></path>
                <path d="M1264.86106,147.480131 L1471.22044,147.480131 L1411.43919,1162.28038 L1316.43919,1162.28038 L1264.86106,147.480131 Z" id="beam-2" transform="translate(1368.040750, 654.880254) rotate(43.000000) translate(-1368.040750, -654.880254) "></path>
                <path d="M1338.58539,472.054138 L1544.94476,472.054138 L1485.16351,1356.96478 L1390.16351,1356.96478 L1338.58539,472.054138 Z" id="beam-1" transform="translate(1441.765074, 914.509459) rotate(68.000000) translate(-1441.765074, -914.509459) "></path>
                <path d="M1381.2988,675.01323 L1587.65817,675.01323 L1527.87692,1559.92387 L1432.87692,1559.92387 L1381.2988,675.01323 Z" id="beam-1-copy" transform="translate(1484.478486, 1117.468550) rotate(89.000000) translate(-1484.478486, -1117.468550) "></path>
            </g>
            <g id="clouds" transform="translate(54.000000, 0.000000)" fill="#FFFFFF" sketch:type="MSShapeGroup">
                <path d="M878,691.296876 L1616.05964,691.296878 C1616.05964,691.296878 1730.74998,628.515633 1669.06248,573.812501 C1607.37498,519.109368 1587.24998,526.234376 1587.24998,526.234376 C1587.24998,526.234376 1581.45308,433.609376 1500.04685,433.609376 C1418.64062,433.609376 1373.42188,505.140626 1373.42188,505.140626 C1373.42188,505.140626 1360.10938,487.297862 1286.96875,477.046878 C1213.82811,466.795893 1202.43749,526.234378 1202.43749,526.234378 C1202.43749,526.234378 1203.60937,526.234378 1134.79687,526.234378 C1065.98438,526.234378 1053.625,590.250001 1053.625,590.250001 C1053.625,590.250001 1002.5,610.875001 954.421875,610.875001 C906.34375,610.875001 878,691.296876 878,691.296876 Z" id="cloud-4"></path>
                <path d="M75.0037636,869.499999 L566.073885,869.5 C566.073885,869.5 642.383435,827.728317 601.339478,791.331429 C560.295521,754.934541 546.905294,759.675186 546.905294,759.675186 C546.905294,759.675186 543.048313,698.046873 488.884442,698.046873 C434.720571,698.046873 404.634151,745.640398 404.634151,745.640398 C404.634151,745.640398 395.776641,733.768663 347.112307,726.948141 C298.447974,720.127619 290.869191,759.675187 290.869191,759.675187 C290.869191,759.675187 291.648902,759.675187 245.864309,759.675187 C200.079716,759.675187 191.856368,802.268168 191.856368,802.268168 C191.856368,802.268168 157.840199,815.991071 125.85128,815.991071 C93.8623596,815.991071 75.0037636,869.499999 75.0037636,869.499999 Z" id="cloud-3"></path>
                <path d="M1.13630166e-06,476.726562 L738.059639,476.726563 C738.059639,476.726563 852.74998,413.945319 791.06248,359.242187 C729.37498,304.539054 709.24998,311.664062 709.24998,311.664062 C709.24998,311.664062 703.453084,219.039062 622.046855,219.039062 C540.640626,219.039062 495.421885,290.570312 495.421885,290.570312 C495.421885,290.570312 482.109385,272.727548 408.968751,262.476563 C335.828116,252.225579 324.437495,311.664063 324.437495,311.664063 C324.437495,311.664063 325.60937,311.664063 256.796876,311.664063 C187.984381,311.664063 175.625003,375.679687 175.625003,375.679687 C175.625003,375.679687 124.500001,396.304687 76.4218757,396.304687 C28.3437507,396.304687 1.13630166e-06,476.726562 1.13630166e-06,476.726562 Z" id="cloud-2"></path>
                <path d="M333.596969,562.453126 L824.66709,562.453127 C824.66709,562.453127 900.976641,520.681444 859.932684,484.284556 C818.888727,447.887668 805.4985,452.628312 805.4985,452.628312 C805.4985,452.628312 801.641518,391 747.477648,391 C693.313777,391 663.227357,438.593525 663.227357,438.593525 C663.227357,438.593525 654.369847,426.72179 605.705513,419.901268 C557.04118,413.080746 549.462397,452.628314 549.462397,452.628314 C549.462397,452.628314 550.242107,452.628314 504.457515,452.628314 C458.672922,452.628314 450.449574,495.221294 450.449574,495.221294 C450.449574,495.221294 416.433405,508.944198 384.444485,508.944198 C352.455565,508.944198 333.596969,562.453126 333.596969,562.453126 Z" id="cloud-1"></path>
                <path d="M878,165.499999 L1369.07012,165.5 C1369.07012,165.5 1389.95311,129.414064 1369.07013,111.991068 C1348.18715,94.5680716 1307.54688,111.991068 1307.54688,111.991068 C1307.54688,111.991068 1325.60936,55.6751875 1275.67186,33.3906264 C1225.73436,11.1060652 1208.70311,55.6751875 1208.70311,55.6751875 C1208.70311,55.6751875 1202.47683,8.42989694 1153.8125,1.60937488 C1105.14817,-5.21114719 1092,33.3906256 1092,33.3906256 C1092,33.3906256 1060.79688,1.60937489 1011.97657,17.023437 C963.156253,32.4374991 962.1875,83.1506896 962.1875,83.1506896 C962.1875,83.1506896 930.843753,40.6328139 878,83.1506896 C825.156247,125.668565 878,165.499999 878,165.499999 Z" id="cloud-5"></path>
            </g>
            <g id="octo-boat" transform="translate(355.000000, 425.000000)">
                <g id="octo" transform="translate(0.000000, 127.000000)" sketch:type="MSShapeGroup">
                    <path d="M421.128203,269.221328 L547.602266,600.257734 L724.99125,587.654609 L710.880859,280.538594 L421.128203,269.221328 Z" id="mouth-bg" fill="#923800"></path>
                    <g id="tongue" transform="translate(636.020000, 505.300000)">
                        <path d="M0,74.12 C0,74.12 37.6733365,-2.70819202 57.6891016,9.922832 C64.6129202,14.2921339 88.9234569,-13.8559078 75.5144336,15.3728325 C54.0750337,30.8010154 54.0750337,71.9059383 54.0750337,71.9059383 L0,74.12 Z" id="tongue-bottom" fill="#BA2515"></path>
                        <path d="M116.461816,37.6755043 C135.424296,47.4578294 154.908114,29.0669339 148.576367,18.4152903 C142.24462,7.76364669 116.792697,3.11616056 98.6875781,0.451579379 C80.5824591,-2.2130018 44.3685352,11.3579662 44.3685352,11.3579662 C44.3685352,11.3579662 97.4993366,27.8931791 116.461816,37.6755043 Z" id="tongue-top" fill="#EA4D45"></path>
                    </g>
                    <path d="M0.421874918,795.32068 C0.421874918,795.32068 57.5328597,513.994042 167.203571,515.436257 C272.107555,516.815789 304.637243,642.94071 364.00818,668.938914 C443.527086,656.199539 443.527086,611.015632 443.527086,544.832195 C443.527086,478.648757 304.637243,435.02321 304.637243,262.036804 C304.637243,89.0503979 363.131043,46.6151703 480.237946,12.3075854 C597.344849,-21.9999994 725.470914,21.2234454 766.703571,111.054773 C807.936227,200.8861 767.259784,242.114733 769.164586,260.427351 C771.069389,278.739969 808.966618,276.888046 785.914821,295.750164 C762.863024,314.612281 726.365055,290.538601 726.365055,290.538601 C726.365055,290.538601 655.528614,329.832674 590.804821,332.282195 C526.081028,334.731715 458.829664,300.663679 458.829664,300.663679 C458.829664,300.663679 499.295914,363.270562 508.901539,425.340945 C518.507164,487.411327 549.061227,558.244296 597.344821,573.291405 C645.628414,588.338515 764.021149,553.96946 764.021149,553.96946 L800.101852,564.571414 L778.140055,590.314148 C778.140055,590.314148 776.939352,656.199547 869.402008,656.199539 C961.864664,656.19953 975.208649,578.494469 990.570836,515.436257 C1005.93302,452.378046 968.089586,371.624366 906.01068,271.846796 C843.931774,172.069226 903.209039,34.8058666 956.763805,34.8058667 C1010.31857,34.8058667 1052.32615,26.8607885 1079.84013,50.7982104 C1107.35412,74.7356324 1106.80395,157.390883 1121.63482,171.762655 C1136.46569,186.134427 1158.09873,152.364061 1184.65045,152.36407 C1211.20216,152.364078 1201.97123,195.836335 1201.97123,195.836335 L1166.65693,198.016335 C1166.65693,198.016335 1144.75936,230.078546 1111.92701,219.12657 C1079.09466,208.174593 1059.94763,162.421023 1059.94763,162.421023 L1053.22029,107.410085 L990.545289,105.894304 C990.545289,105.894304 927.512633,151.257039 977.039508,219.126562 C1026.56638,286.996085 1048.05131,354.686812 1107.35412,487.411335 C1166.65693,620.135858 1070.26006,693.021085 1034.34966,732.320702 C998.439274,771.62032 726.365055,749.743671 726.365055,749.743671 C726.365055,749.743671 294.789062,785.917984 262.587086,732.320702 C230.38511,678.72342 241.315055,646.457655 181.390602,629.86071 C116.98004,612.021273 90.5624999,795.32068 90.5624999,795.32068 L0.421874918,795.32068 Z" id="octo-body" fill="#FF7D2D"></path>
                    <path d="M318.984375,801.025391 C318.984375,801.025391 371.910162,629 473.389779,629 C574.869396,629 645.203166,693.814933 653.855122,712.42232 C662.507079,731.029707 659.429688,801.025391 659.429688,801.025391 L567.849609,801.025391 C567.849609,801.025391 574.403016,738.13902 520.458336,731.029707 C466.513656,723.920394 453.013672,801.025391 453.013672,801.025391 L318.984375,801.025391 Z" id="octo-leg-copy" fill="#E85900"></path>
                    <path d="M344,802.058206 C344,802.058206 392.910162,642 494.389779,642 C595.869396,642 666.203166,706.814933 674.855122,725.42232 C683.507079,744.029707 663.18963,802.058206 663.18963,802.058206 L576.096058,802.058206 C576.096058,802.058206 595.403016,751.13902 541.458336,744.029707 C487.513656,736.920394 475.907956,802.058206 475.907956,802.058206 L344,802.058206 Z" id="octo-leg" fill="#FF7D2D"></path>
                    <path d="M949.164063,752.363281 C949.164063,752.363281 1067.96201,724.127349 1079.00391,592.996094 C1090.0458,461.864839 970.966961,214.667079 992.09375,242.539062 C1013.22054,270.411046 1084.60156,406.4375 1120.45703,525.371094 C1156.3125,644.304687 1047.92969,732.269531 1023.43359,741.785156 C998.9375,751.300781 949.164063,752.363281 949.164063,752.363281 Z" id="Path-43" fill="#E85900"></path>
                    <path d="M334.386719,755.855473 C334.386719,755.855473 295.722659,697.019532 264.941406,664.964845 C234.160154,632.910157 162.054688,625.304688 162.054688,625.304688 C162.054688,625.304688 194.651764,633.435681 196.115062,634.323917 C251.58507,667.994716 237.96875,702.70312 264.941406,733.078125 C291.914062,763.45313 334.386719,755.855473 334.386719,755.855473 Z" id="Path-44" fill="#E85900"></path>
                    <g id="eyes" transform="translate(488.000000, 161.000000)" stroke="#923800" stroke-width="5" stroke-linecap="round" stroke-linejoin="round">
                        <path d="M195.296875,25.84375 C195.296875,25.84375 233.799969,6.23383492 258.4375,5.0078125 C283.075031,3.78179008 310.375,20.1171875 310.375,20.1171875" id="eye-right" transform="translate(252.835938, 15.425781) rotate(5.000000) translate(-252.835938, -15.425781) "></path>
                        <path d="M1.4609375,39.236935 C1.4609375,39.236935 39.9640315,19.6270199 64.6015625,18.4009975 C89.2390935,17.174975 116.539062,33.5103725 116.539062,33.5103725" id="eye-left" transform="translate(59.000000, 28.818966) rotate(-5.000000) translate(-59.000000, -28.818966) "></path>
                    </g>
                </g>
                <g id="boat" transform="translate(887.000000, 0.000000)" sketch:type="MSShapeGroup">
                    <path d="M0.764914773,430.832399 C0.764914773,430.832399 47.3245739,427.697028 59.0120739,423.908976 C70.6995739,420.120924 160.39027,322.696203 196.922763,270.556198 C233.455256,218.416193 248.973189,178.810539 248.973189,178.810539 L238.075994,104.943537 C238.075994,104.943537 223.608665,160.82919 155.931996,263.224387 C80.5696023,359.408732 0.764914773,430.832399 0.764914773,430.832399 Z" id="boat-exterior" stroke="#945119" stroke-width="2.18078453" fill="#945118"></path>
                    <path d="M1.4786044,429.482479 C1.4786044,429.482479 106.905242,328.637825 155.658825,262.174831 C204.412408,195.711837 237.06685,108.318387 237.06685,108.318387 L188.107333,111.877226 C188.107333,111.877226 124.125625,186.327482 79.122603,262.913742 C34.1195806,339.500002 1.4786044,429.482479 1.4786044,429.482479 Z" id="boat-interior" stroke="#5D3819" stroke-width="2.18078453" fill="#5D3819"></path>
                    <path d="M142.32777,188.015265 L204.441761,170.613146 C204.441761,170.613146 214.857952,142.393464 220.542611,128.177554 C226.22727,113.961645 248.503903,101.570729 255.029827,97.1463086 C261.55575,92.7218878 276.184659,28.6215089 276.184659,28.6215089 C276.184659,28.6215089 227.777512,25.9870663 191.254084,30.4672795 C154.730655,34.9474927 119.272727,47.8693982 119.272727,47.8693982 C119.272727,47.8693982 145.27983,71.5447243 145.27983,79.6878301 C145.27983,87.8309359 142.32777,188.015265 142.32777,188.015265 Z" id="boat-sail" fill="#D8D8D8"></path>
                    <path d="M203.910511,12.9339664 C189.124879,129.348772 203.247965,65.0809067 151.298651,203.202157" id="boat-mast" stroke="#5D3819" stroke-width="2.18078453"></path>
                    <rect id="boat-crows-nest" fill="#5D3819" x="187.272727" y="0" width="30.9090909" height="18.5300896" rx="17.4462762"></rect>
                    <path d="M108.572266,50.1253401 L286.885121,38.0554477" id="boat-cross-beam" stroke="#5D3819" stroke-width="2.18078453"></path>
                </g>
                <path d="M957.151326,162.265604 C1010.72529,162.265604 1052.74793,154.314831 1080.27178,178.269411 C1107.79563,202.22399 1107.24527,284.938486 1122.08145,299.320559 C1136.91764,313.702632 1158.55843,279.908061 1185.11967,279.908069 C1211.68091,279.908077 1202.44666,323.411494 1202.44666,323.411494 L1167.1197,325.593056 C1167.1197,325.593056 1145.21428,357.678248 1112.37016,346.718422 C1079.52604,335.758595 1060.37215,289.972231 1060.37215,289.972231 L1053.64239,234.921863 L973.779125,234.92186 C973.779125,234.92186 903.577359,162.265604 957.151326,162.265604 Z" id="octo-arm" fill="#FF7D2D" sketch:type="MSShapeGroup"></path>
                <g id="sailor-1" transform="translate(837.000000, 416.000000)">
                    <path d="M9.64225513,56.5004944 C7.93652298,63.2901513 12.933488,73.3385251 12.933488,73.3385251 L5.0130203,71.0781103 C5.0130203,71.0781103 2.12344421,59.6366334 5.22935192,54.4647421 C8.33525964,49.2928507 21.7904741,42.6546945 21.7904741,42.6546945 C21.7904741,42.6546945 11.3479873,49.7108375 9.64225513,56.5004944 Z" id="sailor-left-arm" stroke="#C4A897" stroke-width="2.18078453" fill="#C4A897" sketch:type="MSShapeGroup"></path>
                    <path d="M36.6293261,40.3541607 C36.6293261,40.3541607 46.6362769,33.9472992 48.7830406,27.138013 C50.9298044,20.3287269 47.3610164,9.67033006 47.3610164,9.67033006 L54.2594877,12.5929441 C54.2594877,12.5929441 55.8115886,24.5127243 52.5559981,29.5600209 C49.3004076,34.6073176 36.6293261,40.3541607 36.6293261,40.3541607 Z" id="sailor-right-arm" stroke="#C4A897" stroke-width="2.18078453" fill="#C4A897" sketch:type="MSShapeGroup"></path>
                    <path d="M20.9082865,68.7616295 C20.9082865,68.7616295 24.5862989,79.3989505 21.6268817,85.6211001 C18.6674646,91.8432497 8.42868995,97.4332825 8.42868995,97.4332825 L16.0261653,99.4454601 C16.0261653,99.4454601 25.5031738,91.7332944 26.3501537,86.1245538 C27.1971335,80.5158132 20.9082865,68.7616295 20.9082865,68.7616295 L20.9082865,68.7616295 Z" id="sailor-left-leg" stroke="#C4A897" stroke-width="2.18078453" fill="#C4A897" sketch:type="MSShapeGroup"></path>
                    <path d="M39.0578089,67.7698878 C39.0578089,67.7698878 39.4157964,79.7260418 35.5272554,85.4645663 C31.6387144,91.2030908 22.0674361,94.4972167 22.0674361,94.4972167 L27.6690819,98.4537184 C27.6690819,98.4537184 37.1464856,92.7674764 39.1918206,87.1475796 C41.2371555,81.5276828 39.0578089,67.7698878 39.0578089,67.7698878 L39.0578089,67.7698878 Z" id="sailor-right-leg" stroke="#C4A897" stroke-width="2.18078453" fill="#C4A897" sketch:type="MSShapeGroup"></path>
                    <g id="sailor-stripes" transform="translate(18.000000, 35.000000)">
                        <mask id="mask-3" sketch:name="Mask" fill="white">
                            <use xlink:href="#path-2"></use>
                        </mask>
                        <use id="Mask" stroke="#C4A897" stroke-width="4.18099976" fill="#FFFFFF" sketch:type="MSShapeGroup" xlink:href="#path-2"></use>
                        <rect id="Rectangle-7" fill="#4990E2" sketch:type="MSShapeGroup" mask="url(#mask-3)" x="-15" y="2" width="51" height="21"></rect>
                    </g>
                    <path d="M28.2893775,40.6597617 C39.7696975,38.1439303 47.5416167,29.7944625 45.6484447,22.0107034 C43.7552728,14.2269442 32.9139155,9.95644496 21.4335955,12.4722763 C9.95327542,14.9881077 2.18135631,23.3375755 4.07452825,31.1213346 C5.96770019,38.9050938 16.8090575,43.1755931 28.2893775,40.6597617 L28.2893775,40.6597617 Z" id="sailor-head" stroke="#C4A897" stroke-width="2.18078453" fill="#C4A897" sketch:type="MSShapeGroup"></path>
                    <g id="stache" transform="translate(26.246572, 32.723350) rotate(-11.000000) translate(-26.246572, -32.723350) translate(6.746572, 27.223350)" fill="#5D3819" sketch:type="MSShapeGroup">
                        <path d="M3.20176751,3.99247455 C3.20176751,3.99247455 0.378034022,5.92358916 0.800603385,7.64642431 C1.22317275,9.36925946 2.20304291,10.6614134 4.78238811,10.436739 C7.36173331,10.2120646 8.04862447,7.41890354 11.3023292,6.73166933 C14.5560339,6.04443513 15.5696107,8.89506814 18.1148229,7.62071664 C20.6600352,6.34636514 20.0241228,2.36479148 20.0241228,2.36479148 C20.0241228,2.36479148 13.6916611,-0.0709592187 9.60672079,1.37979695 C5.52178042,2.83055312 5.98663332,7.28079484 4.67190326,7.81709317 C3.35717321,8.3533915 3.20176751,3.99247455 3.20176751,3.99247455 L3.20176751,3.99247455 Z" id="stache-left"></path>
                        <path d="M35.5488346,3.89461735 C35.5488346,3.89461735 38.4010414,5.80904538 38.0165036,7.55998683 C37.6319659,9.31092829 36.6834661,10.6338511 34.1104712,10.4440134 C31.5374763,10.2541757 30.7948162,7.43549842 27.540633,6.7870685 C24.2864498,6.13863859 23.3371504,9.04037148 20.7760756,7.78699616 C18.2150009,6.53362085 18.7644825,2.4920707 18.7644825,2.4920707 C18.7644825,2.4920707 25.0185538,-0.0672332612 29.1164548,1.34228938 C33.2143559,2.75181202 32.8450517,7.26549605 34.1654115,7.78940655 C35.4857713,8.31331706 35.5488346,3.89461735 35.5488346,3.89461735 L35.5488346,3.89461735 Z" id="stache-right"></path>
                    </g>
                    <path d="M37.5702656,0.442106827 L34.1312653,12.2745503 L9.79526354,17.8068742 L0.892138668,9.12449049 L37.5702656,0.442106827 Z" id="sailor-hat" stroke="#5D3819" stroke-width="2.18078453" fill="#FFFFFF" sketch:type="MSShapeGroup"></path>
                    <path d="M34.7453482,6.79008476 L6.59217319,13.2897573 L6.67937211,13.6674573 L9.80551797,16.8014125 C9.80551797,16.8014125 17.0593887,15.1062349 20.686324,14.2586461 C24.9505503,13.2621269 33.4790028,11.2690886 33.4790028,11.2690886 L34.7453482,6.79008476 Z" id="sailor-hat-stripe" fill="#4990E2" sketch:type="MSShapeGroup" transform="translate(20.668761, 11.795749) rotate(0.500000) translate(-20.668761, -11.795749) "></path>
                </g>
                <g id="sailor-2" transform="translate(739.335490, 560.440486) rotate(-68.000000) translate(-739.335490, -560.440486) translate(706.335490, 493.440486)">
                    <path d="M32.921086,78.2132073 C32.921086,78.2132073 43.4730662,83.6760502 50.4434629,82.130559 C57.4138595,80.5850679 64.8599079,72.1652084 64.8599079,72.1652084 L65.7780856,79.6007668 C65.7780856,79.6007668 56.2313036,86.9048157 50.2324212,86.60904 C44.2335389,86.3132642 32.921086,78.2132073 32.921086,78.2132073 Z" id="sailor-right-arm" stroke="#C4A897" stroke-width="2.18078453" fill="#C4A897" sketch:type="MSShapeGroup"></path>
                    <path d="M16.1221576,109.903226 C16.1221576,109.903226 27.2952529,111.260545 31.5903608,116.648062 C35.8854687,122.035579 36.4213735,133.688638 36.4213735,133.688638 L41.5604208,127.742153 C41.5604208,127.742153 38.7832193,115.843483 34.1134081,112.623513 C29.443597,109.403542 16.1221576,109.903226 16.1221576,109.903226 L16.1221576,109.903226 Z" id="sailor-left-leg" stroke="#C4A897" stroke-width="2.18078453" fill="#C4A897" sketch:type="MSShapeGroup"></path>
                    <path d="M33.5958411,109.175515 C33.5958411,109.175515 45.5543452,109.443755 51.0814947,113.627298 C56.6086443,117.810841 59.3973337,127.541404 59.3973337,127.541404 L63.6415807,122.154502 C63.6415807,122.154502 58.4591404,112.392492 52.9539901,110.055837 C47.4488397,107.719183 33.5958411,109.175515 33.5958411,109.175515 L33.5958411,109.175515 Z" id="sailor-right-leg" stroke="#C4A897" stroke-width="2.18078453" fill="#C4A897" sketch:type="MSShapeGroup"></path>
                    <g id="sailor-stripes" transform="translate(15.000000, 75.000000)">
                        <mask id="mask-5" sketch:name="Mask" fill="white">
                            <use xlink:href="#path-4"></use>
                        </mask>
                        <use id="Mask" stroke="#4A90E2" stroke-width="4.18099976" fill="#FFFFFF" sketch:type="MSShapeGroup" xlink:href="#path-4"></use>
                        <g mask="url(#mask-5)">
                            <g transform="translate(0.000000, 1.000000)">
                                <mask id="mask-7" sketch:name="Mask" fill="white">
                                    <use xlink:href="#path-6"></use>
                                </mask>
                                <use id="Mask" stroke="none" fill="#FFFFFF" fill-rule="evenodd" sketch:type="MSShapeGroup" xlink:href="#path-6"></use>
                                <g id="sailor-stripes" stroke="none" stroke-width="1" fill="none" fill-rule="evenodd" sketch:type="MSLayerGroup" mask="url(#mask-7)">
                                    <g transform="translate(1.000000, 7.000000)" stroke="#4990E2" stroke-width="3" sketch:type="MSShapeGroup">
                                        <path d="M0.503760649,2.23049637 C7.07376034,1.49221512 13.64376,0.753933874 20.2137597,0.0156526239" id="sailor-stripe"></path>
                                        <path d="M1.50376065,8.23049637 C8.74042701,7.49221512 15.9770934,6.75393387 23.2137597,6.01565262" id="sailor-stripe-copy"></path>
                                        <path d="M1.50376065,14.2304964 C8.74042701,13.4922151 15.9770934,12.7539339 23.2137597,12.0156526" id="sailor-stripe-copy-2"></path>
                                    </g>
                                </g>
                            </g>
                        </g>
                    </g>
                    <path d="M27.539103,96.8479683 C34.0252914,99.482038 44.6713183,95.9321664 44.6713183,95.9321664 L41.3305856,103.460964 C41.3305856,103.460964 29.5983051,104.730073 24.909005,100.934603 C20.219705,97.139134 15.5187548,82.891012 15.5187548,82.891012 C15.5187548,82.891012 21.0529146,94.2138986 27.539103,96.8479683 Z" id="sailor-left-arm" stroke="#C4A897" stroke-width="2.18078453" fill="#C4A897" sketch:type="MSShapeGroup"></path>
                    <path d="M25.2893775,80.6597617 C36.7696975,78.1439303 44.5416167,69.7944625 42.6484447,62.0107034 C40.7552728,54.2269442 29.9139155,49.956445 18.4335955,52.4722763 C6.95327542,54.9881077 -0.818643692,63.3375755 1.07452825,71.1213346 C2.96770019,78.9050938 13.8090575,83.1755931 25.2893775,80.6597617 L25.2893775,80.6597617 Z" id="sailor-head" stroke="#C4A897" stroke-width="2.18078453" fill="#C4A897" sketch:type="MSShapeGroup"></path>
                    <g id="sailor-hat" transform="translate(36.022427, 16.614544) rotate(-26.000000) translate(-36.022427, -16.614544) translate(17.022427, 7.614544)" sketch:type="MSShapeGroup">
                        <path d="M37.5702656,0.442106827 L34.1312653,12.2745503 L9.79526354,17.8068742 L0.892138668,9.12449049 L37.5702656,0.442106827 Z" stroke="#FFFFFF" stroke-width="2.18078453" fill="#FFFFFF"></path>
                        <path d="M34.7455704,6.79018188 L6.59239547,13.2898545 L6.67959438,13.6675544 L9.80574025,16.8015096 L33.479225,11.2691857 L34.7455704,6.79018188 Z" id="sailor-hat-stripe" fill="#4990E2" transform="translate(20.680000, 11.770327) rotate(0.500000) translate(-20.680000, -11.770327) "></path>
                    </g>
                </g>
            </g>
        </g>
    </g>
</svg>