<?xml version="1.0" encoding="UTF-8" standalone="no"?>
<!-- Created with Inkscape (http://www.inkscape.org/) -->

<svg
   xmlns:dc="http://purl.org/dc/elements/1.1/"
   xmlns:cc="http://creativecommons.org/ns#"
   xmlns:rdf="http://www.w3.org/1999/02/22-rdf-syntax-ns#"
   xmlns:svg="http://www.w3.org/2000/svg"
   xmlns="http://www.w3.org/2000/svg"
   xmlns:sodipodi="http://sodipodi.sourceforge.net/DTD/sodipodi-0.dtd"
   xmlns:inkscape="http://www.inkscape.org/namespaces/inkscape"
   id="svg2985"
   version="1.1"
   inkscape:version="0.48.4 r9939"
   width="471"
   height="604"
   sodipodi:docname="doodle.svg"
   inkscape:export-filename="C:\git\chrisdavies\img\doodle.png"
   inkscape:export-xdpi="66.69323"
   inkscape:export-ydpi="66.69323">
  <metadata
     id="metadata2991">
    <rdf:RDF>
      <cc:Work
         rdf:about="">
        <dc:format>image/svg+xml</dc:format>
        <dc:type
           rdf:resource="http://purl.org/dc/dcmitype/StillImage" />
        <dc:title></dc:title>
      </cc:Work>
    </rdf:RDF>
  </metadata>
  <defs
     id="defs2989" />
  <sodipodi:namedview
     pagecolor="#ffffff"
     bordercolor="#666666"
     borderopacity="1"
     objecttolerance="10"
     gridtolerance="10"
     guidetolerance="10"
     inkscape:pageopacity="0"
     inkscape:pageshadow="2"
     inkscape:window-width="463"
     inkscape:window-height="423"
     id="namedview2987"
     showgrid="false"
     inkscape:zoom="0.78145695"
     inkscape:cx="260.75298"
     inkscape:cy="189.35204"
     inkscape:window-x="130"
     inkscape:window-y="130"
     inkscape:window-maximized="0"
     inkscape:current-layer="svg2985" />
  <g
     inkscape:groupmode="layer"
     id="layer1"
     inkscape:label="Vectors">
    <path
       style="fill:none;stroke:#000000;stroke-width:5;stroke-linecap:round;stroke-linejoin:miter;stroke-miterlimit:4;stroke-opacity:1;stroke-dasharray:none"
       d="m 78.69502,193.55385 c 0,0 -30.043546,-16.86669 -34.381377,16.94688 -0.579141,33.03251 37.204719,24.94383 37.204719,24.94383"
       inkscape:connector-curvature="0"
       sodipodi:nodetypes="ccc"
       id="path2990" />
    <path
       style="fill:none;stroke:#000000;stroke-width:5.19999981;stroke-linecap:round;stroke-linejoin:miter;stroke-miterlimit:4;stroke-opacity:1;stroke-dasharray:none"
       d="m 60.783898,211.7839 c 0,0 -6.130403,-2.53118 0.459087,-7.19338 8.172992,-5.11464 15.536676,0.15525 15.536676,0.15525"
       id="path3778"
       inkscape:connector-curvature="0"
       sodipodi:nodetypes="ccc" />
    <path
       sodipodi:nodetypes="cc"
       inkscape:connector-curvature="0"
       id="path3793"
       d="m 414.88016,200.89813 c 4.77951,-1.76858 10.73234,-0.98227 15.99576,3.36772"
       style="fill:none;stroke:#000000;stroke-width:5.19999981;stroke-linecap:round;stroke-linejoin:miter;stroke-miterlimit:4;stroke-opacity:1;stroke-dasharray:none" />
  </g>
  <path
     style="fill:none;stroke:#000000;stroke-width:5;stroke-linecap:round;stroke-linejoin:miter;stroke-miterlimit:4;stroke-opacity:1;stroke-dasharray:none"
     d="m 423.02064,178.14636 c 0,0 5.89011,-6.35836 12.668,-1.35729 11.30218,7.26321 9.57465,26.74632 7.23885,37.09914 -2.3358,10.35282 -9.3896,17.23487 -15.38257,20.81171 -5.99297,3.57684 -15.83499,2.26214 -15.83499,2.26214"
     id="path3780"
     inkscape:connector-curvature="0"
     sodipodi:nodetypes="ccccc" />
  <path
     style="fill:none;stroke:#000000;stroke-width:5;stroke-linecap:round;stroke-linejoin:miter;stroke-miterlimit:4;stroke-opacity:1;stroke-dasharray:none"
     d="M 85.737288,207.94491 C 88.054891,152.73939 106.13312,48.868719 239.29661,40.309321 c 46.14653,-6.000077 167.5619,26.574323 178.51271,101.093219 6.472,30.3706 -6.79665,111.20349 -33.27118,142.04237 C 342.06785,332.19905 272.85129,341.31723 226.5,339.75 171.19108,339.46243 145.03526,324.42176 115.80932,298.80085 98.740164,275.73926 86.618837,243.31569 85.737288,207.94491 z"
     id="path3795"
     inkscape:connector-curvature="0"
     sodipodi:nodetypes="ccccccc" />
  <path
     style="fill:none;stroke:#000000;stroke-width:5;stroke-linecap:round;stroke-linejoin:miter;stroke-miterlimit:4;stroke-opacity:1;stroke-dasharray:none"
     d="m 414.13844,175.42888 c 0,0 -30.03956,-73.34652 -39.87602,-57.08345 -25.57437,53.02683 -66.64741,71.08344 -72.31067,65.30941 -61.46381,-42.31398 -69.25692,-82.84637 -117.76727,-99.926372 -15.13673,-4.842286 -50.17578,6.027178 -64.69026,25.287212 -16.39513,25.40909 -14.79925,78.4282 -14.79925,78.4282 l -14.329818,4.40542"
     id="path3797"
     inkscape:connector-curvature="0"
     sodipodi:nodetypes="ccccccc" />
  <path
     style="fill:none;stroke:#000000;stroke-width:5;stroke-linecap:butt;stroke-linejoin:miter;stroke-miterlimit:4;stroke-opacity:1;stroke-dasharray:none"
     d="m 190.77331,195.31144 c -0.15217,-2.29132 25.27667,-3.53255 33.27118,-5.75847 9.91401,-2.86576 13.35761,-8.96106 15.03601,-5.43856 1.03857,3.5225 -2.65825,12.55249 -3.83897,11.83687 -24.11034,-0.90829 -44.31605,1.65148 -44.46822,-0.63984 z"
     id="path3799"
     inkscape:connector-curvature="0"
     sodipodi:nodetypes="zcccz" />
  <path
     sodipodi:nodetypes="zcccz"
     inkscape:connector-curvature="0"
     id="path3801"
     d="m 386.23528,209.76994 c 0.57532,-2.91189 -20.7025,-7.77785 -27.03424,-11.65622 -7.83147,-4.94443 -9.55784,-13.18662 -11.66469,-8.89631 -1.56538,4.37279 -0.19663,16.40226 0.94204,15.6389 20.58091,1.94592 37.18158,7.82552 37.75689,4.91363 z"
     style="fill:none;stroke:#000000;stroke-width:5.26269245;stroke-linecap:butt;stroke-linejoin:miter;stroke-miterlimit:4;stroke-opacity:1;stroke-dasharray:none" />
  <path
     sodipodi:type="arc"
     style="fill:none;stroke:#000000;stroke-width:5;stroke-linecap:round;stroke-miterlimit:4;stroke-opacity:1;stroke-dasharray:none"
     id="path3805"
     sodipodi:cx="137.08368"
     sodipodi:cy="229.85912"
     sodipodi:rx="24.793432"
     sodipodi:ry="24.473516"
     d="m 161.87711,229.85912 a 24.793432,24.473516 0 1 1 -49.58686,0 24.793432,24.473516 0 1 1 49.58686,0 z"
     transform="matrix(0.91209004,0,0,0.91209004,87.494877,15.119563)" />
  <path
     sodipodi:type="arc"
     style="fill:#000000;fill-opacity:1;stroke:#000000;stroke-width:5;stroke-linecap:round;stroke-miterlimit:4;stroke-opacity:1;stroke-dasharray:none"
     id="path3809"
     sodipodi:cx="112.13029"
     sodipodi:cy="215.94279"
     sodipodi:rx="5.9184322"
     sodipodi:ry="6.7182202"
     d="m 118.04872,215.94279 a 5.9184322,6.7182202 0 1 1 -11.83687,0 5.9184322,6.7182202 0 1 1 11.83687,0 z"
     transform="matrix(-0.2727034,-1.2518044,1.9868081,-0.43282267,-182.33255,467.93077)" />
  <path
     style="fill:none;stroke:#000000;stroke-width:5;stroke-linecap:round;stroke-linejoin:miter;stroke-miterlimit:4;stroke-opacity:1;stroke-dasharray:none"
     d="m 281.89376,263.3139 c 0,0 -1.66293,5.933 2.6711,10.93753 3.50957,4.04753 12.61755,1.73491 16.87353,-1.50383 4.14719,-2.99699 5.2265,-7.58368 4.67215,-11.573 -0.55436,-3.98933 -4.4186,-6.93456 -4.4186,-6.93456"
     id="path3813"
     inkscape:connector-curvature="0"
     sodipodi:nodetypes="ccccc" />
  <path
     style="fill:none;stroke:#000000;stroke-width:5;stroke-linecap:round;stroke-linejoin:miter;stroke-miterlimit:4;stroke-opacity:1;stroke-dasharray:none"
     d="m 175.99469,299.0632 c 0,0 21.39478,17.16607 54.74385,19.90686 33.34907,2.74078 118.53626,-6.78643 118.53626,-6.78643"
     id="path3815"
     inkscape:connector-curvature="0"
     sodipodi:nodetypes="czc" />
  <path
     style="fill:none;stroke:#000000;stroke-width:5;stroke-linecap:round;stroke-linejoin:miter;stroke-miterlimit:4;stroke-opacity:1;stroke-dasharray:none"
     d="m 204.66667,309.70591 c 0,0 -3.84324,-9.83618 0.90486,-14.47771 4.7481,-4.64153 14.38519,-4.50736 19.90686,-0.45243 5.52167,4.05493 5.88157,20.35928 5.88157,20.35928"
     id="path3817"
     inkscape:connector-curvature="0"
     sodipodi:nodetypes="czzc" />
  <path
     style="fill:none;stroke:#000000;stroke-width:5;stroke-linecap:round;stroke-linejoin:miter;stroke-miterlimit:4;stroke-opacity:1;stroke-dasharray:none"
     d="m 216.42982,311.0632 -2.71458,-18.54957"
     id="path3819"
     inkscape:connector-curvature="0" />
  <g
     id="g3887"
     transform="matrix(0.84941333,0,0,0.83013689,32.462105,57.612386)">
    <path
       sodipodi:nodetypes="ccczczc"
       inkscape:connector-curvature="0"
       id="path3821"
       d="m 212.49474,346.11774 c 0,0 -5.95252,42.64086 5.6561,60.24476 11.60861,17.60392 47.15537,24.10648 63.89773,24.98439 16.74237,0.8779 27.55831,-13.47074 29.65345,-0.11834 2.09513,13.35238 3.60125,22.94792 -3.37731,28.50537 -44.83523,-1.22438 -87.05345,-12.61957 -102.17466,-39.46787 -15.1212,-26.84828 6.34469,-74.14831 6.34469,-74.14831 z"
       style="fill:none;stroke:#000000;stroke-width:5.42670584;stroke-linecap:butt;stroke-linejoin:miter;stroke-miterlimit:4;stroke-opacity:1;stroke-dasharray:none" />
    <path
       inkscape:connector-curvature="0"
       id="path3823"
       d="m 287.2839,433.80508 -2.55932,26.23306"
       style="fill:none;stroke:#000000;stroke-width:5;stroke-linecap:butt;stroke-linejoin:miter;stroke-miterlimit:4;stroke-opacity:1;stroke-dasharray:none" />
  </g>
  <g
     id="g3897"
     transform="translate(-3.6194243,-2.7145706)">
    <path
       inkscape:connector-curvature="0"
       id="path3825"
       d="m 243.13559,398.61441 4.47882,-31.99153 25.59322,-1.91949"
       style="fill:none;stroke:#000000;stroke-width:4;stroke-linecap:round;stroke-linejoin:miter;stroke-miterlimit:4;stroke-opacity:1;stroke-dasharray:none" />
    <path
       sodipodi:nodetypes="cc"
       inkscape:connector-curvature="0"
       id="path3829"
       d="m 277.68644,365.34322 -7.52272,49.13054"
       style="fill:none;stroke:#000000;stroke-width:4;stroke-linecap:round;stroke-linejoin:miter;stroke-miterlimit:4;stroke-opacity:1;stroke-dasharray:none" />
    <path
       sodipodi:nodetypes="cc"
       inkscape:connector-curvature="0"
       id="path3831"
       d="m 251.77646,372.80904 13.34664,0.90486"
       style="fill:none;stroke:#000000;stroke-width:3;stroke-linecap:round;stroke-linejoin:miter;stroke-miterlimit:4;stroke-opacity:1;stroke-dasharray:none" />
    <path
       style="fill:none;stroke:#000000;stroke-width:3.07561111;stroke-linecap:round;stroke-linejoin:miter;stroke-miterlimit:4;stroke-opacity:1;stroke-dasharray:none"
       d="m 251.13563,377.59735 15.30695,0.82924"
       id="path3833"
       inkscape:connector-curvature="0"
       sodipodi:nodetypes="cc" />
    <path
       sodipodi:nodetypes="cc"
       inkscape:connector-curvature="0"
       id="path3835"
       d="m 250.93067,385.72936 c 4.70509,-0.8529 9.38436,-1.73161 15.26445,-1.4095"
       style="fill:none;stroke:#000000;stroke-width:3.07561111;stroke-linecap:round;stroke-linejoin:miter;stroke-miterlimit:4;stroke-opacity:1;stroke-dasharray:none" />
    <path
       style="fill:none;stroke:#000000;stroke-width:3.07561111;stroke-linecap:round;stroke-linejoin:miter;stroke-miterlimit:4;stroke-opacity:1;stroke-dasharray:none"
       d="m 250.4427,392.72706 c 4.76296,-0.42369 9.50254,-0.87543 15.32937,-0.0226"
       id="path3837"
       inkscape:connector-curvature="0"
       sodipodi:nodetypes="cc" />
    <path
       sodipodi:nodetypes="cc"
       inkscape:connector-curvature="0"
       id="path3839"
       d="m 247.50191,402.9067 c 4.76296,-0.42369 9.50254,-0.87543 15.32937,-0.0226"
       style="fill:none;stroke:#000000;stroke-width:3.07561111;stroke-linecap:round;stroke-linejoin:miter;stroke-miterlimit:4;stroke-opacity:1;stroke-dasharray:none" />
  </g>
  <g
     id="g3906">
    <path
       sodipodi:nodetypes="czzc"
       inkscape:connector-curvature="0"
       id="path3845"
       d="m 236.68516,431.79405 c 0,0 -3.16589,8.40353 -1.46085,16.03298 1.70508,7.62944 5.9958,-2.47463 15.21548,-0.21588 9.21968,2.25873 15.26235,0.005 15.26235,0.005"
       style="fill:none;stroke:#000000;stroke-width:4;stroke-linecap:round;stroke-linejoin:miter;stroke-miterlimit:4;stroke-opacity:1;stroke-dasharray:none" />
    <path
       style="fill:none;stroke:#000000;stroke-width:3;stroke-linecap:round;stroke-linejoin:miter;stroke-miterlimit:4;stroke-opacity:1;stroke-dasharray:none"
       d="m 241.41474,439.40469 13.34664,0.90486"
       id="path3847"
       inkscape:connector-curvature="0"
       sodipodi:nodetypes="cc" />
    <path
       sodipodi:nodetypes="cccc"
       inkscape:connector-curvature="0"
       id="path3849"
       d="m 210.79817,415.67217 c -5.3803,36.55649 -2.67609,51.77306 1.48591,66.77753 l 82.50828,2.65027 -2.24882,-11.77645"
       style="fill:none;stroke:#000000;stroke-width:5;stroke-linecap:round;stroke-linejoin:miter;stroke-miterlimit:4;stroke-opacity:1;stroke-dasharray:none" />
  </g>
  <path
     style="fill:#000000;stroke:#000000;stroke-width:1.03695774px;stroke-linecap:butt;stroke-linejoin:miter;stroke-opacity:1"
     d="m 198.12682,548.76316 25.64892,4.81085 c 6.61527,-15.52268 7.59985,-37.44112 8.26727,-59.71981 l 39.65284,5.2874 c 3.54056,16.26504 -0.67625,31.59851 0.44828,49.35405 l 29.96213,-4.17041 c -4.15259,-9.40697 -1.23421,-43.61154 -7.62266,-60.2374 l -84.63413,-2.274 c -1.56642,20.46757 -2.92842,42.0228 -11.72265,66.94932 z"
     id="path3869"
     inkscape:connector-curvature="0"
     sodipodi:nodetypes="ccccccccc" />
  <path
     sodipodi:type="arc"
     style="fill:none;stroke:#000000;stroke-width:3;stroke-linecap:round;stroke-miterlimit:4;stroke-opacity:1;stroke-dasharray:none"
     id="path3871"
     sodipodi:cx="111.0712"
     sodipodi:cy="523.24152"
     sodipodi:rx="9.7272129"
     sodipodi:ry="9.2747841"
     d="m 120.79841,523.24152 a 9.7272129,9.2747841 0 1 1 -19.45443,0 9.7272129,9.2747841 0 1 1 19.45443,0 z"
     transform="matrix(0.91602087,0,0,0.91602087,97.060797,81.492931)" />
  <path
     transform="matrix(0.81527715,0,0,0.81527715,124.76416,136.74017)"
     d="m 120.79841,523.24152 a 9.7272129,9.2747841 0 1 1 -19.45443,0 9.7272129,9.2747841 0 1 1 19.45443,0 z"
     sodipodi:ry="9.2747841"
     sodipodi:rx="9.7272129"
     sodipodi:cy="523.24152"
     sodipodi:cx="111.0712"
     id="path3873"
     style="fill:none;stroke:#000000;stroke-width:3.67973018;stroke-linecap:round;stroke-miterlimit:4;stroke-opacity:1;stroke-dasharray:none"
     sodipodi:type="arc" />
  <path
     sodipodi:type="arc"
     style="fill:none;stroke:#000000;stroke-width:3.67973018;stroke-linecap:round;stroke-miterlimit:4;stroke-opacity:1;stroke-dasharray:none"
     id="path3875"
     sodipodi:cx="111.0712"
     sodipodi:cy="523.24152"
     sodipodi:rx="9.7272129"
     sodipodi:ry="9.2747841"
     d="m 120.79841,523.24152 a 9.7272129,9.2747841 0 1 1 -19.45443,0 9.7272129,9.2747841 0 1 1 19.45443,0 z"
     transform="matrix(0.81527715,0,0,0.81527715,140.59916,137.1926)" />
  <path
     transform="matrix(0.81527715,0,0,0.81527715,189.91387,134.47803)"
     d="m 120.79841,523.24152 a 9.7272129,9.2747841 0 1 1 -19.45443,0 9.7272129,9.2747841 0 1 1 19.45443,0 z"
     sodipodi:ry="9.2747841"
     sodipodi:rx="9.7272129"
     sodipodi:cy="523.24152"
     sodipodi:cx="111.0712"
     id="path3877"
     style="fill:none;stroke:#000000;stroke-width:3.67973018;stroke-linecap:round;stroke-miterlimit:4;stroke-opacity:1;stroke-dasharray:none"
     sodipodi:type="arc" />
  <path
     sodipodi:type="arc"
     style="fill:none;stroke:#000000;stroke-width:3.67973018;stroke-linecap:round;stroke-miterlimit:4;stroke-opacity:1;stroke-dasharray:none"
     id="path3879"
     sodipodi:cx="111.0712"
     sodipodi:cy="523.24152"
     sodipodi:rx="9.7272129"
     sodipodi:ry="9.2747841"
     d="m 120.79841,523.24152 a 9.7272129,9.2747841 0 1 1 -19.45443,0 9.7272129,9.2747841 0 1 1 19.45443,0 z"
     transform="matrix(0.81527715,0,0,0.81527715,210.72558,132.21589)" />
  <path
     transform="matrix(0.67423594,0,0,0.67423594,242.45241,202.23268)"
     d="m 120.79841,523.24152 a 9.7272129,9.2747841 0 1 1 -19.45443,0 9.7272129,9.2747841 0 1 1 19.45443,0 z"
     sodipodi:ry="9.2747841"
     sodipodi:rx="9.7272129"
     sodipodi:cy="523.24152"
     sodipodi:cx="111.0712"
     id="path3881"
     style="fill:none;stroke:#000000;stroke-width:4.44948101;stroke-linecap:round;stroke-miterlimit:4;stroke-opacity:1;stroke-dasharray:none"
     sodipodi:type="arc" />
  <path
     transform="matrix(0.80534692,0,0,0.80534692,245.09558,47.653324)"
     d="m 161.87711,229.85912 a 24.793432,24.473516 0 1 1 -49.58686,0 24.793432,24.473516 0 1 1 49.58686,0 z"
     sodipodi:ry="24.473516"
     sodipodi:rx="24.793432"
     sodipodi:cy="229.85912"
     sodipodi:cx="137.08368"
     id="path3883"
     style="fill:none;stroke:#000000;stroke-width:5;stroke-linecap:round;stroke-miterlimit:4;stroke-opacity:1;stroke-dasharray:none"
     sodipodi:type="arc" />
  <path
     transform="matrix(0.15950612,-1.1199259,1.7774964,0.25316101,-46.969634,313.91607)"
     d="m 118.04872,215.94279 a 5.9184322,6.7182202 0 1 1 -11.83687,0 5.9184322,6.7182202 0 1 1 11.83687,0 z"
     sodipodi:ry="6.7182202"
     sodipodi:rx="5.9184322"
     sodipodi:cy="215.94279"
     sodipodi:cx="112.13029"
     id="path3885"
     style="fill:#000000;fill-opacity:1;stroke:#000000;stroke-width:5;stroke-linecap:round;stroke-miterlimit:4;stroke-opacity:1;stroke-dasharray:none"
     sodipodi:type="arc" />
  <path
     sodipodi:nodetypes="cccc"
     inkscape:connector-curvature="0"
     id="path3893"
     d="m 314.31679,333.78706 c 11.05853,4.03491 44.17765,60.07174 32.2597,56.66084 l 23.87584,-12.40163 c 0,0 -22.09194,-25.85005 -56.13554,-44.25921 z"
     style="fill:none;stroke:#000000;stroke-width:4.30532598;stroke-linecap:butt;stroke-linejoin:miter;stroke-miterlimit:4;stroke-opacity:1;stroke-dasharray:none" />
  <path
     style="fill:none;stroke:#000000;stroke-width:3;stroke-linecap:butt;stroke-linejoin:miter;stroke-miterlimit:4;stroke-opacity:1;stroke-dasharray:none"
     d="m 369.59558,425.74516 c 9.42666,-15.9296 11.32567,-25.67668 11.34921,-53.38855 -25.2081,16.65583 -33.63279,26.08171 -66.05456,16.28743 -7.42086,74.4101 -44.21973,54.95901 -51.57685,79.62741 55.17207,11.18145 75.10313,2.71457 75.10313,2.71457 0,0 3.20284,1.90631 12.6295,-14.02329"
     id="path3920"
     inkscape:connector-curvature="0"
     sodipodi:nodetypes="cccccc" />
  <g
     transform="matrix(-0.84941333,0,0,0.83013689,595.01266,72.994955)"
     id="g3924">
    <path
       style="fill:none;stroke:#000000;stroke-width:5.42670584;stroke-linecap:butt;stroke-linejoin:miter;stroke-miterlimit:4;stroke-opacity:1;stroke-dasharray:none"
       d="m 253.30485,381.29228 c 0,0 0.28336,44.81666 21.28681,48.9646 16.74237,0.8779 35.01522,-12.38073 37.11036,0.97167 2.09513,13.35238 3.60125,22.94792 -3.37731,28.50537 -103.53183,16.35401 -55.01986,-78.44164 -55.01986,-78.44164 z"
       id="path3926"
       inkscape:connector-curvature="0"
       sodipodi:nodetypes="cczcc" />
    <path
       style="fill:none;stroke:#000000;stroke-width:5;stroke-linecap:butt;stroke-linejoin:miter;stroke-miterlimit:4;stroke-opacity:1;stroke-dasharray:none"
       d="m 278.76172,430.53505 5.96286,29.50309"
       id="path3928"
       inkscape:connector-curvature="0"
       sodipodi:nodetypes="cc" />
  </g>
  <path
     style="fill:none;stroke:#000000;stroke-width:5;stroke-linecap:round;stroke-linejoin:miter;stroke-opacity:1;stroke-miterlimit:4;stroke-dasharray:none"
     d="M 286.83966,410.36061 C 275.52895,389.54889 275.52895,389.54889 275.52895,389.54889"
     id="path3930"
     inkscape:connector-curvature="0" />
  <path
     style="fill:none;stroke:#000000;stroke-width:4;stroke-linecap:butt;stroke-linejoin:miter;stroke-miterlimit:4;stroke-opacity:1;stroke-dasharray:none"
     d="m 310.36595,332.09048 c -15.61496,35.71434 -20.18338,45.84295 -16.73986,79.17498"
     id="path3932"
     inkscape:connector-curvature="0"
     sodipodi:nodetypes="cc" />
</svg>
