<?xml version="1.0" encoding="UTF-8" standalone="no"?>
<!-- Created with Inkscape (http://www.inkscape.org/) -->

<svg
   xmlns:dc="http://purl.org/dc/elements/1.1/"
   xmlns:cc="http://creativecommons.org/ns#"
   xmlns:rdf="http://www.w3.org/1999/02/22-rdf-syntax-ns#"
   xmlns:svg="http://www.w3.org/2000/svg"
   xmlns="http://www.w3.org/2000/svg"
   xmlns:sodipodi="http://sodipodi.sourceforge.net/DTD/sodipodi-0.dtd"
   xmlns:inkscape="http://www.inkscape.org/namespaces/inkscape"
   id="svg2985"
   version="1.1"
   inkscape:version="0.48.4 r9939"
   width="471"
   height="604"
   sodipodi:docname="mooostache.svg"
   inkscape:export-filename="C:\git\chrisdavies\img\mooostache.png"
   inkscape:export-xdpi="59.869354"
   inkscape:export-ydpi="59.869354">
  <metadata
     id="metadata2991">
    <rdf:RDF>
      <cc:Work
         rdf:about="">
        <dc:format>image/svg+xml</dc:format>
        <dc:type
           rdf:resource="http://purl.org/dc/dcmitype/StillImage" />
        <dc:title></dc:title>
      </cc:Work>
    </rdf:RDF>
  </metadata>
  <defs
     id="defs2989" />
  <sodipodi:namedview
     pagecolor="#ffffff"
     bordercolor="#666666"
     borderopacity="1"
     objecttolerance="10"
     gridtolerance="10"
     guidetolerance="10"
     inkscape:pageopacity="0"
     inkscape:pageshadow="2"
     inkscape:window-width="944"
     inkscape:window-height="1001"
     id="namedview2987"
     showgrid="false"
     inkscape:zoom="0.78145695"
     inkscape:cx="265.88505"
     inkscape:cy="407.21463"
     inkscape:window-x="960"
     inkscape:window-y="0"
     inkscape:window-maximized="0"
     inkscape:current-layer="svg2985" />
  <g
     inkscape:groupmode="layer"
     id="layer1"
     inkscape:label="Vectors">
    <path
       style="fill:none;stroke:#000000;stroke-width:5;stroke-linecap:round;stroke-linejoin:miter;stroke-opacity:1;stroke-miterlimit:4;stroke-dasharray:none"
       d="m 83.817797,185.55085 c 0,0 -25.983613,-22.62635 -37.110169,9.59746 -7.287573,32.22381 31.351694,31.99152 31.351694,31.99152"
       inkscape:connector-curvature="0"
       sodipodi:nodetypes="ccc"
       id="path4085" />
    <path
       style="fill:none;stroke:#000000;stroke-width:5.20000000000000020;stroke-linecap:round;stroke-linejoin:miter;stroke-opacity:1;stroke-miterlimit:4;stroke-dasharray:none"
       d="m 63.34322,202.82627 c 0,0 -6.130403,-2.53118 0.459087,-7.19338 8.172992,-5.11464 15.536676,0.15525 15.536676,0.15525"
       id="path3778"
       inkscape:connector-curvature="0"
       sodipodi:nodetypes="ccc" />
    <path
       sodipodi:nodetypes="cc"
       inkscape:connector-curvature="0"
       id="path3793"
       d="m 414.88016,206.89813 c 4.77951,-1.76858 10.73234,-0.98227 15.99576,3.36772"
       style="fill:none;stroke:#000000;stroke-width:5.19999981;stroke-linecap:round;stroke-linejoin:miter;stroke-miterlimit:4;stroke-opacity:1;stroke-dasharray:none" />
  </g>
  <path
     style="fill:none;stroke:#000000;stroke-width:5;stroke-linecap:round;stroke-linejoin:miter;stroke-miterlimit:4;stroke-opacity:1;stroke-dasharray:none"
     d="m 423.02064,184.14636 c 0,0 5.89011,-6.35836 12.668,-1.35729 11.30218,7.26321 9.57465,26.74632 7.23885,37.09914 -2.3358,10.35282 -9.3896,17.23487 -15.38257,20.81171 -5.99297,3.57684 -15.83499,2.26214 -15.83499,2.26214"
     id="path3780"
     inkscape:connector-curvature="0"
     sodipodi:nodetypes="ccccc" />
  <path
     style="fill:none;stroke:#000000;stroke-width:5;stroke-linecap:round;stroke-linejoin:miter;stroke-miterlimit:4;stroke-opacity:1;stroke-dasharray:none"
     d="M 85.737288,207.94491 C 88.054891,152.73939 106.13312,48.868719 239.29661,40.309321 c 46.14653,-6.000077 167.5619,26.574323 178.51271,101.093219 6.472,30.3706 -6.79665,111.20349 -33.27118,142.04237 C 342.06785,332.19905 272.85129,341.31723 226.5,339.75 171.19108,339.46243 145.03526,324.42176 115.80932,298.80085 98.740164,275.73926 86.618837,243.31569 85.737288,207.94491 z"
     id="path3795"
     inkscape:connector-curvature="0"
     sodipodi:nodetypes="ccccccc" />
  <path
     style="fill:none;stroke:#000000;stroke-width:5;stroke-linecap:round;stroke-linejoin:miter;stroke-miterlimit:4;stroke-opacity:1;stroke-dasharray:none"
     d="m 101.09322,138.20339 c 0,0 43.91457,-63.588199 46.70763,-44.788136 3.11297,58.789476 95.23908,68.081916 102.6928,64.942786 73.03634,-15.2959 59.02768,-68.241016 110.37075,-65.262701 15.83248,1.378736 43.95594,24.936141 49.90679,48.307201 5.78817,33.07917 -0.92195,17.13071 3.83898,49.26695"
     id="path3797"
     inkscape:connector-curvature="0"
     sodipodi:nodetypes="cccccc" />
  <path
     style="fill:none;stroke:#000000;stroke-width:5;stroke-linecap:butt;stroke-linejoin:miter;stroke-miterlimit:4;stroke-opacity:1;stroke-dasharray:none"
     d="m 137.14303,191.51255 c -0.69646,-2.18821 23.69521,-9.48293 30.92404,-13.55857 8.93926,-5.15654 10.82297,-11.89914 13.29609,-8.88108 1.85191,3.17129 0.42512,12.82383 -0.89261,12.41179 -23.6263,4.89199 -42.63106,12.21606 -43.32752,10.02786 z"
     id="path3799"
     inkscape:connector-curvature="0"
     sodipodi:nodetypes="zcccz" />
  <path
     sodipodi:nodetypes="zcccz"
     inkscape:connector-curvature="0"
     id="path3801"
     d="m 340.0961,198.58396 c 1.08993,-2.76082 -18.96491,-11.37633 -24.49536,-16.33079 -6.81387,-6.273 -7.02886,-14.6913 -9.87337,-10.85016 -2.32671,4.01971 -3.14503,16.09911 -1.88758,15.55312 19.89476,5.61772 35.16639,14.38866 36.25631,11.62783 z"
     style="fill:none;stroke:#000000;stroke-width:5.26269245;stroke-linecap:butt;stroke-linejoin:miter;stroke-miterlimit:4;stroke-opacity:1;stroke-dasharray:none" />
  <path
     transform="matrix(0.91209004,0,0,0.91209004,35.884707,6.9585459)"
     style="fill:none;stroke:#000000;stroke-width:5;stroke-linecap:round;stroke-miterlimit:4;stroke-opacity:1"
     d="m 161.87711,229.85912 c 0,13.51635 -11.1004,24.47351 -24.79343,24.47351 -13.69304,0 -24.79343,-10.95716 -24.79343,-24.47351 0,-13.51635 11.10039,-10.44353 24.79343,-10.44353 13.69303,0 24.79343,-3.07282 24.79343,10.44353 z"
     id="path3805"
     inkscape:connector-curvature="0"
     sodipodi:nodetypes="sssss" />
  <path
     style="fill:none;stroke:#000000;stroke-width:5;stroke-linecap:round;stroke-linejoin:miter;stroke-miterlimit:4;stroke-opacity:1;stroke-dasharray:none"
     d="m 229.23313,240.42548 c 0,0 -5.03897,3.54607 -4.8442,10.16356 0.16087,5.35478 8.68018,9.32025 14.02528,9.501 5.10799,0.29931 8.84369,-2.57248 10.93591,-6.01408 2.09222,-3.44161 0.95974,-8.16646 0.95974,-8.16646"
     id="path3813"
     inkscape:connector-curvature="0"
     sodipodi:nodetypes="ccccc" />
  <path
     style="fill:none;stroke:#000000;stroke-width:4.12196207;stroke-linecap:butt;stroke-linejoin:miter;stroke-miterlimit:4;stroke-opacity:1;stroke-dasharray:none"
     d="m 200.53103,339.45282 c 0,0 -20.98237,63.62255 -4.37403,57.75884 36.35328,-12.83482 70.85635,-28.24602 70.85635,-28.24602 0,0 -6.68685,24.88144 -11.9134,28.99887 -30.51043,-4.41263 -43.91121,30.82917 -77.3406,18.10436 -33.42938,-12.72481 22.77168,-76.61605 22.77168,-76.61605 z"
     id="path3821"
     inkscape:connector-curvature="0"
     sodipodi:nodetypes="cscczc" />
  <path
     sodipodi:nodetypes="cccczc"
     inkscape:connector-curvature="0"
     id="path4678"
     d="m 269.24714,342.16739 c 0,0 1.7887,35.83382 -4.67455,51.42484 -6.86543,19.74608 -23.80378,5.23369 -23.80378,5.23369 0,0 -30.41228,11.30858 -25.18574,15.42601 30.51044,-4.41263 62.00835,25.40003 70.10175,1.81694 8.09338,-23.58307 -16.43768,-73.90148 -16.43768,-73.90148 z"
     style="fill:none;stroke:#000000;stroke-width:4.12196207;stroke-linecap:butt;stroke-linejoin:miter;stroke-miterlimit:4;stroke-opacity:1;stroke-dasharray:none" />
  <path
     style="fill:#000000;stroke:#000000;stroke-width:1px;stroke-linecap:butt;stroke-linejoin:miter;stroke-opacity:1"
     d="m 180.51897,531.61144 23.07385,7.69129 c 8.00115,-14.66265 11.58992,-36.31607 14.93014,-58.36328 l 30.31271,7.23886 c 1.27723,16.55366 1.13395,33.81759 0,51.57684 l 27.14571,-6.33399 c 2.9943,-23.24471 -7.81391,-44.46751 -6.78643,-57.91085 l -69.67398,-9.04857 c -3.94812,20.1466 -7.84065,41.39648 -19.002,65.1497 z"
     id="path3869"
     inkscape:connector-curvature="0"
     sodipodi:nodetypes="ccccccccc" />
  <path
     sodipodi:type="arc"
     style="fill:none;stroke:#000000;stroke-width:3;stroke-linecap:round;stroke-miterlimit:4;stroke-opacity:1;stroke-dasharray:none"
     id="path3871"
     sodipodi:cx="111.0712"
     sodipodi:cy="523.24152"
     sodipodi:rx="9.7272129"
     sodipodi:ry="9.2747841"
     d="m 120.79841,523.24152 a 9.7272129,9.2747841 0 1 1 -19.45443,0 9.7272129,9.2747841 0 1 1 19.45443,0 z"
     transform="matrix(0.91602087,0,0,0.91602087,62.67623,65.205506)" />
  <path
     transform="matrix(0.81527715,0,0,0.81527715,90.379596,120.45274)"
     d="m 120.79841,523.24152 a 9.7272129,9.2747841 0 1 1 -19.45443,0 9.7272129,9.2747841 0 1 1 19.45443,0 z"
     sodipodi:ry="9.2747841"
     sodipodi:rx="9.7272129"
     sodipodi:cy="523.24152"
     sodipodi:cx="111.0712"
     id="path3873"
     style="fill:none;stroke:#000000;stroke-width:3.67973026;stroke-linecap:round;stroke-miterlimit:4;stroke-opacity:1;stroke-dasharray:none"
     sodipodi:type="arc" />
  <path
     sodipodi:type="arc"
     style="fill:none;stroke:#000000;stroke-width:3.67973026;stroke-linecap:round;stroke-miterlimit:4;stroke-opacity:1;stroke-dasharray:none"
     id="path3875"
     sodipodi:cx="111.0712"
     sodipodi:cy="523.24152"
     sodipodi:rx="9.7272129"
     sodipodi:ry="9.2747841"
     d="m 120.79841,523.24152 a 9.7272129,9.2747841 0 1 1 -19.45443,0 9.7272129,9.2747841 0 1 1 19.45443,0 z"
     transform="matrix(0.81527715,0,0,0.81527715,106.21459,120.90517)" />
  <path
     transform="matrix(0.81527715,0,0,0.81527715,167.29244,121.81003)"
     d="m 120.79841,523.24152 a 9.7272129,9.2747841 0 1 1 -19.45443,0 9.7272129,9.2747841 0 1 1 19.45443,0 z"
     sodipodi:ry="9.2747841"
     sodipodi:rx="9.7272129"
     sodipodi:cy="523.24152"
     sodipodi:cx="111.0712"
     id="path3877"
     style="fill:none;stroke:#000000;stroke-width:3.67973026;stroke-linecap:round;stroke-miterlimit:4;stroke-opacity:1;stroke-dasharray:none"
     sodipodi:type="arc" />
  <path
     sodipodi:type="arc"
     style="fill:none;stroke:#000000;stroke-width:3.67973026;stroke-linecap:round;stroke-miterlimit:4;stroke-opacity:1;stroke-dasharray:none"
     id="path3879"
     sodipodi:cx="111.0712"
     sodipodi:cy="523.24152"
     sodipodi:rx="9.7272129"
     sodipodi:ry="9.2747841"
     d="m 120.79841,523.24152 a 9.7272129,9.2747841 0 1 1 -19.45443,0 9.7272129,9.2747841 0 1 1 19.45443,0 z"
     transform="matrix(0.81527715,0,0,0.81527715,188.10415,119.54789)" />
  <path
     transform="matrix(0.67423594,0,0,0.67423594,219.83098,189.56468)"
     d="m 120.79841,523.24152 a 9.7272129,9.2747841 0 1 1 -19.45443,0 9.7272129,9.2747841 0 1 1 19.45443,0 z"
     sodipodi:ry="9.2747841"
     sodipodi:rx="9.7272129"
     sodipodi:cy="523.24152"
     sodipodi:cx="111.0712"
     id="path3881"
     style="fill:none;stroke:#000000;stroke-width:4.44948099;stroke-linecap:round;stroke-miterlimit:4;stroke-opacity:1;stroke-dasharray:none"
     sodipodi:type="arc" />
  <path
     style="fill:#000000;fill-opacity:1;stroke:#000000;stroke-width:0.92656308px;stroke-linecap:butt;stroke-linejoin:round;stroke-opacity:1"
     d="m 236.21469,286.63436 c 0,0 -24.79067,-22.45887 -39.50385,-23.06086 C 150.0045,261.66249 67.225994,326.35028 67.225994,326.35028 176.10002,288.61821 176.71054,312.89342 209.87878,310.97638 z"
     id="path4135"
     inkscape:connector-curvature="0"
     sodipodi:nodetypes="csccc" />
  <path
     sodipodi:nodetypes="csccc"
     inkscape:connector-curvature="0"
     id="path4645"
     d="m 236.73729,286.64407 c 0,0 28.90988,-22.43261 46.0678,-23.0339 54.46704,-1.90878 151,62.70339 151,62.70339 C 306.84059,288.6256 306.12863,312.87243 267.44916,310.95763 z"
     style="fill:#000000;fill-opacity:1;stroke:#000000;stroke-width:1px;stroke-linecap:butt;stroke-linejoin:round;stroke-opacity:1" />
  <path
     style="fill:none;stroke:#000000;stroke-width:4;stroke-linecap:round;stroke-linejoin:miter;stroke-miterlimit:4;stroke-opacity:1;stroke-dasharray:none"
     d="M 93.415255,313.51695 55.025424,332.71187 24.313559,312.23729 37.11017,258.49153 72.940679,277.68644 74.22034,304.55932 67.822035,278.9661 39.669492,271.28814 23.033899,316.07627"
     id="path4647"
     inkscape:connector-curvature="0" />
  <path
     inkscape:connector-curvature="0"
     id="path4649"
     d="m 397.97458,309.67796 38.38983,19.19492 c 0,0 25.09275,-6.17943 30.71186,-20.47458 5.61911,-14.29515 3.99914,-46.19236 -12.79661,-53.74576 -12.35726,-5.55732 -35.83051,19.19491 -35.83051,19.19491 l -1.27966,26.87288 6.39831,-25.59322 c 0,0 16.29046,-18.06203 27.70011,-12.20224 11.40965,5.85979 17.99288,33.02498 17.99288,33.02498"
     style="fill:none;stroke:#000000;stroke-width:4;stroke-linecap:round;stroke-linejoin:miter;stroke-miterlimit:4;stroke-opacity:1;stroke-dasharray:none"
     sodipodi:nodetypes="cczsccczc" />
  <path
     style="fill:#000000;fill-opacity:1;stroke:#000000;stroke-width:2.72825098;stroke-linecap:round;stroke-linejoin:round;stroke-miterlimit:4;stroke-opacity:1"
     d="m 174.68328,212.85101 c 0.21554,7.11041 -5.24824,13.04545 -12.20368,13.25629 -6.95545,0.21085 -12.76868,-5.38236 -12.98422,-12.49277 -0.21554,-7.1104 3.00279,-4.16392 9.95823,-4.37476 6.95545,-0.21084 15.01413,-3.49917 15.22967,3.61124 z"
     id="path4651"
     inkscape:connector-curvature="0"
     sodipodi:nodetypes="sssss"
     inkscape:transform-center-x="-5.1186441"
     inkscape:transform-center-y="5.1186441" />
  <path
     sodipodi:nodetypes="ccc"
     style="fill:none;stroke:#000000;stroke-width:4;stroke-linecap:round;stroke-linejoin:miter;stroke-miterlimit:4;stroke-opacity:1;stroke-dasharray:none"
     d="m 219.23882,374.16986 25.72421,-3.76955 -0.0642,4.37417"
     id="path3825"
     inkscape:connector-curvature="0" />
  <path
     style="fill:none;stroke:#000000;stroke-width:3;stroke-linecap:round;stroke-linejoin:miter;stroke-miterlimit:4;stroke-opacity:1;stroke-dasharray:none"
     d="m 224.07894,379.84124 13.36278,-0.62251"
     id="path3831"
     inkscape:connector-curvature="0"
     sodipodi:nodetypes="cc" />
  <path
     sodipodi:nodetypes="cc"
     inkscape:connector-curvature="0"
     id="path3841"
     d="m 224.49374,418.96904 c 4.88263,0.77054 9.62025,0.48247 15.22686,-1.76995"
     style="fill:none;stroke:#000000;stroke-width:3.07561111;stroke-linecap:round;stroke-linejoin:miter;stroke-miterlimit:4;stroke-opacity:1;stroke-dasharray:none" />
  <path
     style="fill:none;stroke:#000000;stroke-width:3.07561111;stroke-linecap:round;stroke-linejoin:miter;stroke-miterlimit:4;stroke-opacity:1;stroke-dasharray:none"
     d="m 224.49374,418.96904 c 4.88263,0.77054 9.62025,0.48247 15.22686,-1.76995"
     id="path3843"
     inkscape:connector-curvature="0"
     sodipodi:nodetypes="cc" />
  <path
     style="fill:none;stroke:#000000;stroke-width:4;stroke-linecap:round;stroke-linejoin:miter;stroke-miterlimit:4;stroke-opacity:1;stroke-dasharray:none"
     d="m 215.92467,416.94165 c 0,0 -2.8714,16.40869 -1.89327,24.16491 0.97816,7.75622 16.60826,-0.54102 25.57391,2.57693 8.96565,3.11793 6.14528,-21.17707 6.14528,-21.17707"
     id="path3845"
     inkscape:connector-curvature="0"
     sodipodi:nodetypes="czzc" />
  <path
     sodipodi:nodetypes="cc"
     inkscape:connector-curvature="0"
     id="path3847"
     d="m 222.22893,435.15657 13.36279,-0.62251"
     style="fill:none;stroke:#000000;stroke-width:3;stroke-linecap:round;stroke-linejoin:miter;stroke-miterlimit:4;stroke-opacity:1;stroke-dasharray:none" />
  <path
     sodipodi:nodetypes="cc"
     inkscape:connector-curvature="0"
     id="path4659"
     d="m 225.40571,426.91689 c 4.88263,0.77054 9.62026,0.48247 15.22687,-1.76995"
     style="fill:none;stroke:#000000;stroke-width:3.07561111;stroke-linecap:round;stroke-linejoin:miter;stroke-miterlimit:4;stroke-opacity:1;stroke-dasharray:none" />
  <path
     style="fill:none;stroke:#000000;stroke-width:3;stroke-linecap:round;stroke-linejoin:round;stroke-miterlimit:4;stroke-opacity:1"
     d="m 200.10214,373.18421 c 0.53287,-21.73467 0.7212,-9.96389 2.58582,-32.4976 l 64.24484,0 c -3.93648,21.41495 -4.04668,12.96962 -4.47495,34.38456 m -2.71457,46.14771 c -0.42827,21.41495 1.53997,31.06675 7.18952,52.4817 l -64.24484,-4.52428 c -3.99609,-19.0173 -4.9284,-29.91943 -4.39553,-51.6541"
     id="rect4675"
     inkscape:connector-curvature="0"
     sodipodi:nodetypes="cccccccc" />
  <path
     style="fill:none;stroke:#000000;stroke-width:3;stroke-linecap:butt;stroke-linejoin:miter;stroke-opacity:1;stroke-miterlimit:4;stroke-dasharray:none"
     d="m 194.54425,394.07318 2.71457,-21.71657 27.14571,11.76314"
     id="path4682"
     inkscape:connector-curvature="0" />
  <path
     style="fill:none;stroke:#000000;stroke-width:3;stroke-linecap:round;stroke-linejoin:miter;stroke-miterlimit:4;stroke-opacity:1;stroke-dasharray:none"
     d="m 287.74452,222.15035 c 15.03157,11.15454 30.86526,17.49638 50.67199,0"
     id="path4696"
     inkscape:connector-curvature="0"
     sodipodi:nodetypes="cc" />
  <g
     id="g3797"
     transform="matrix(0.96424409,-0.26501573,0.26501573,0.96424409,-4.3860924,134.49892)">
    <path
       sodipodi:nodetypes="ccccc"
       inkscape:connector-curvature="0"
       id="rect3024"
       d="m 135.10605,-115.17098 104.8736,-17.02945 -14.75931,98.929248 -65.26271,5.118644 z"
       style="fill:#000000;stroke:#000000;stroke-width:3;stroke-linecap:round;stroke-linejoin:round;stroke-miterlimit:4;stroke-opacity:1" />
    <path
       inkscape:connector-curvature="0"
       id="path3027"
       d="M 135.64407,-25.593223 255.9322,-34.55085"
       style="fill:none;stroke:#000000;stroke-width:4;stroke-linecap:butt;stroke-linejoin:miter;stroke-miterlimit:4;stroke-opacity:1;stroke-dasharray:none" />
  </g>
  <path
     sodipodi:type="arc"
     style="fill:none;stroke:#000000;stroke-width:4;stroke-linecap:round;stroke-linejoin:round;stroke-miterlimit:4;stroke-opacity:1;stroke-dasharray:none"
     id="path3802"
     sodipodi:cx="309.03815"
     sodipodi:cy="-142.04237"
     sodipodi:rx="55.665253"
     sodipodi:ry="57.584747"
     d="m 364.7034,-142.04237 a 55.665253,57.584747 0 1 1 -111.33051,0 55.665253,57.584747 0 1 1 111.33051,0 z"
     transform="matrix(0.73154602,0,0,0.73154602,-62.794302,315.69443)" />
  <path
     style="fill:none;stroke:#000000;stroke-width:2;stroke-linecap:round;stroke-linejoin:miter;stroke-opacity:1;stroke-miterlimit:4;stroke-dasharray:none"
     d="m 120.28814,216.26271 c 0,0 -26.413945,201.31985 35.83051,222.66102 33.77535,11.58023 40.94915,-12.79661 40.94915,-12.79661"
     id="path3804"
     inkscape:connector-curvature="0"
     sodipodi:nodetypes="csc" />
</svg>
