<svg xmlns="http://www.w3.org/2000/svg" width="256" height="256" viewBox="0 0 100 100"><rect width="100" height="100" rx="20" fill="#50beff"></rect><path d="M59.79 49.82L59.79 49.82Q59.79 45.93 58.71 43.09Q57.63 40.24 55.72 38.41Q53.82 36.57 51.19 35.67Q48.56 34.77 45.46 34.77L45.46 34.77Q43.81 34.77 42.48 34.88Q41.14 34.99 39.92 35.13L39.92 35.13L39.92 64.72Q41.14 65.01 42.69 65.12Q44.24 65.23 45.75 65.23L45.75 65.23Q52.45 65.23 56.12 61.34Q59.79 57.45 59.79 49.82ZM69.37 49.75L69.37 49.75Q69.37 55.58 67.68 59.94Q65.98 64.29 62.89 67.14Q59.79 69.98 55.44 71.42Q51.08 72.86 45.75 72.86L45.75 72.86Q44.53 72.86 43.09 72.82Q41.65 72.79 40.10 72.61Q38.55 72.43 37.00 72.14Q35.46 71.85 34.09 71.35L34.09 71.35Q30.63 70.05 30.63 67.03L30.63 67.03L30.63 31.75Q30.63 30.45 31.35 29.73Q32.07 29.01 33.37 28.58L33.37 28.58Q36.03 27.64 39.16 27.39Q42.30 27.14 45.10 27.14L45.10 27.14Q50.50 27.14 55.00 28.54Q59.50 29.95 62.67 32.76Q65.84 35.56 67.60 39.81Q69.37 44.06 69.37 49.75Z" fill="#fff"></path></svg>